<svg width="25" height="25" viewBox="0 0 25 25" fill="none" xmlns="http://www.w3.org/2000/svg">
<g id="linkedin">
<path d="M3.4244 6.8488C5.0395 6.8488 6.3488 5.5395 6.3488 3.9244C6.3488 2.3093 5.0395 1 3.4244 1C1.8093 1 0.5 2.3093 0.5 3.9244C0.5 5.5395 1.8093 6.8488 3.4244 6.8488Z" fill="#38256A"/>
<path d="M0.816151 8.35052V24Z" fill="#38256A"/>
<path fill-rule="evenodd" clip-rule="evenodd" d="M0.816151 24V8.35052H6.03265V24H0.816151ZM8.87801 24V8.35052H14.0945V24H8.87801Z" fill="#38256A"/>
<path d="M14.0945 15.2638C14.0945 13.683 15.043 12.1443 16.8608 12.1443C18.7577 12.1443 19.4691 13.567 19.4691 15.701V24H24.6856V15.0687C24.6856 10.2474 22.1564 8.03436 18.6787 8.03436C15.9914 8.03436 14.7268 9.48597 14.0945 10.5135" fill="#38256A"/>
</g>
</svg>
