<svg width="82" height="82" viewBox="0 0 82 82" fill="none" xmlns="http://www.w3.org/2000/svg">
<g id="figma">
<path d="M28.25 81C31.7641 81 35.1343 79.5952 37.6192 77.0948C40.104 74.5943 41.5 71.2029 41.5 67.6667V54.3333H28.25C24.7359 54.3333 21.3657 55.7381 18.8808 58.2386C16.396 60.7391 15 64.1305 15 67.6667C15 71.2029 16.396 74.5943 18.8808 77.0948C21.3657 79.5952 24.7359 81 28.25 81Z" fill="#0ACF83"/>
<path d="M15 41C15 37.4638 16.396 34.0724 18.8808 31.5719C21.3657 29.0714 24.7359 27.6667 28.25 27.6667H41.5V54.3333H28.25C24.7359 54.3333 21.3657 52.9286 18.8808 50.4281C16.396 47.9276 15 44.5362 15 41Z" fill="#A259FF"/>
<path d="M15 14.3333C15 10.7989 16.3946 7.40911 18.8772 4.90892C21.3598 2.40874 24.7273 1.00276 28.2396 1H41.4897V27.6667H28.25C24.7359 27.6667 21.3657 26.2619 18.8808 23.7614C16.396 21.2609 15 17.8696 15 14.3333Z" fill="#F24E1E"/>
<path d="M41.5 1H54.75C58.2641 1 61.6343 2.40476 64.1192 4.90524C66.604 7.40573 68 10.7971 68 14.3333C68 17.8696 66.604 21.2609 64.1192 23.7614C61.6343 26.2619 58.2641 27.6667 54.75 27.6667H41.5V1Z" fill="#FF7262"/>
<path d="M68 41C68 44.5362 66.604 47.9276 64.1192 50.4281C61.6343 52.9286 58.2641 54.3333 54.75 54.3333C51.2359 54.3333 47.8657 52.9286 45.3808 50.4281C42.896 47.9276 41.5 44.5362 41.5 41C41.5 37.4638 42.896 34.0724 45.3808 31.5719C47.8657 29.0714 51.2359 27.6667 54.75 27.6667C58.2641 27.6667 61.6343 29.0714 64.1192 31.5719C66.604 34.0724 68 37.4638 68 41Z" fill="#1ABCFE"/>
</g>
</svg>
