<svg width="82" height="82" viewBox="0 0 82 82" fill="none" xmlns="http://www.w3.org/2000/svg">
<g id="html">
<path d="M14.3138 73.005L8.37525 1.0025H73.6247L67.6816 72.995L40.9584 81L14.3138 73.005Z" fill="#E44D26"/>
<path d="M62.5918 68.41L67.6724 6.89H41V74.8825L62.5918 68.41Z" fill="#F16529"/>
<path d="M20.5159 15.72L22.7197 42.425H41V33.595H30.1914L29.4444 24.5525H41V15.72H20.5159ZM41 56.5L40.9653 56.51L31.8679 53.855L31.2898 46.8125H23.0851L24.2297 60.6775L40.963 65.6775L41 65.665V56.5Z" fill="#EBEBEB"/>
<path d="M40.9722 42.425H51.0316L50.1066 53.875L40.9954 56.5325V65.72L57.7425 60.7025L59.9856 33.59H41L40.9722 42.425ZM61.239 18.09L61.4333 15.72H40.9676V24.55H60.6979L60.8597 22.565L61.239 18.09Z" fill="white"/>
</g>
</svg>
