<svg width="82" height="82" viewBox="0 0 82 82" fill="none" xmlns="http://www.w3.org/2000/svg">
<g id="insomnia">
<path d="M41 78.966C60.3956 78.966 76.1188 61.968 76.1188 41C76.1188 20.0319 60.3956 3.0339 41 3.0339C21.6046 3.0339 5.88145 20.0319 5.88145 41C5.88145 61.968 21.6046 78.966 41 78.966Z" fill="white"/>
<path d="M41 1C20.5655 1 4 18.9086 4 41C4 63.0915 20.5655 81 41 81C61.4346 81 78 63.0915 78 41C78 18.9086 61.4346 1 41 1ZM41 5.0678C59.3564 5.0678 74.2373 21.1552 74.2373 41C74.2373 60.8447 59.3564 76.9323 41 76.9323C22.6436 76.9323 7.76272 60.8447 7.76272 41C7.76272 21.1552 22.6436 5.0678 41 5.0678Z" fill="#4000BF"/>
<path d="M41.4179 12.5254C55.9647 12.5254 67.757 25.2739 67.757 41C67.757 56.726 55.9647 69.4745 41.4179 69.4745C26.8713 69.4745 15.0789 56.726 15.0789 41C15.0789 37.1567 15.7833 33.4912 17.06 30.146C18.9243 32.8905 21.9306 34.6722 25.3219 34.6722C30.979 34.6722 35.5647 29.7145 35.5647 23.5989C35.5647 19.9326 33.9168 16.6825 31.3779 14.6672C34.4723 13.2869 37.8629 12.5254 41.4179 12.5254Z" fill="url(#paint0_linear_106_1190)"/>
</g>
<defs>
<linearGradient id="paint0_linear_106_1190" x1="2648.97" y1="5707.43" x2="2648.97" y2="12.5254" gradientUnits="userSpaceOnUse">
<stop stop-color="#7400E1"/>
<stop offset="1" stop-color="#4000BF"/>
</linearGradient>
</defs>
</svg>
