<svg width="82" height="82" viewBox="0 0 82 82" fill="none" xmlns="http://www.w3.org/2000/svg">
<g id="jest">
<path d="M72.6073 40.3975C72.6073 35.58 69.5432 31.5263 65.4304 30.3688L74.6434 1H28.9866L38.2204 30.4625C34.2359 31.7125 31.3002 35.6975 31.3002 40.4225C31.3002 43.8975 32.919 46.9775 35.3494 48.8762C34.3851 50.3587 33.2716 51.7262 32.0078 53.0225C29.6294 55.4312 26.9943 57.285 24.1453 58.51C21.5738 56.635 20.4604 53.3225 21.4675 50.3575C25.3872 49.06 28.2373 45.1 28.2373 40.445C28.2373 34.7237 23.9314 30.0913 18.6601 30.0913C13.3679 30.0913 9.06322 34.7463 9.06322 40.4663C9.06448 43.1935 10.0662 45.8088 11.8486 47.7387L11.3977 48.735C9.96394 51.9313 8.33363 55.545 7.71272 59.61C6.46975 67.7163 8.50591 74.225 13.413 77.9075C16.188 79.97 19.2174 81.0113 22.4965 81.0113C28.1309 81.0113 33.8509 77.9538 39.3778 74.9888C43.3206 72.8813 47.3906 70.6812 51.397 69.6137C52.877 69.22 54.4183 68.9887 56.0451 68.7337C59.3451 68.2237 62.7514 67.6912 65.8154 65.7687C69.3929 63.5225 71.836 59.7688 72.5425 55.4613C73.0778 52.1488 72.5425 48.8138 71.1712 45.895C72.0927 44.295 72.6049 42.42 72.6049 40.4075L72.6073 40.3975ZM68.4297 40.3975C68.4297 43.6175 66.0085 46.235 63.03 46.235C60.0515 46.235 57.6303 43.6175 57.6303 40.3975C57.6303 39.355 57.887 38.36 58.3357 37.5025C58.5068 37.1775 58.7219 36.8525 58.9369 36.5775C59.1605 36.2941 59.4121 36.0379 59.6873 35.8138L59.7104 35.7887C59.8816 35.6512 60.0747 35.5113 60.2678 35.3713C60.2678 35.3713 60.2909 35.3712 60.2909 35.3462C60.3764 35.3 60.462 35.23 60.5476 35.1838C60.5707 35.1838 60.5904 35.1587 60.6123 35.1587C60.6979 35.1125 60.8054 35.0662 60.9129 35.0212C61.0205 34.9762 61.1268 34.9288 61.2136 34.8838C61.2367 34.8838 61.2563 34.8587 61.2783 34.8587C61.3639 34.8337 61.4494 34.7888 61.535 34.7663C61.5581 34.7663 61.5998 34.7412 61.6206 34.7412L61.9212 34.6712H61.9443L62.2658 34.6012C62.2889 34.6012 62.3305 34.6012 62.3513 34.5762C62.4369 34.5762 62.5224 34.5513 62.608 34.5513H62.7155C62.8231 34.5513 62.9294 34.5262 63.0578 34.5262H63.3353C63.4145 34.5226 63.4939 34.5306 63.5712 34.55H63.6139C63.7851 34.575 63.9562 34.5962 64.1285 34.6425C65.3451 34.9241 66.4359 35.6476 67.2193 36.6926C68.0028 37.7376 68.4315 39.0411 68.4343 40.3862L68.4297 40.3975ZM34.9644 5.6325H68.6656L60.9303 30.3C60.6088 30.37 60.2874 30.485 59.966 30.6L51.826 12.65L43.6628 30.485C43.3414 30.3687 42.9992 30.3 42.6569 30.23L34.9644 5.6325ZM50.2824 38.3825C49.8754 36.205 48.8486 34.26 47.3918 32.8237L51.8271 23.1425L56.3053 33.0325C54.9422 34.4898 54.0102 36.3518 53.6274 38.3825H50.2824ZM39.5489 34.7225L39.8495 34.6525H39.9143C39.9998 34.6275 40.0854 34.6275 40.171 34.6063H40.2565C40.3421 34.6063 40.4068 34.5812 40.4924 34.5812H41.3284C41.4139 34.5812 41.4787 34.6063 41.5423 34.6063C41.5851 34.6063 41.607 34.6063 41.6498 34.6313C41.7354 34.6563 41.8001 34.6562 41.8857 34.6775C41.9088 34.6775 41.9285 34.6775 41.9713 34.7025L42.2719 34.7725C42.3794 34.7975 42.465 34.8187 42.5494 34.865C42.5725 34.865 42.5922 34.89 42.6349 34.89C42.6997 34.915 42.7853 34.9363 42.8488 34.9825C42.872 34.9825 42.8916 35.0075 42.9136 35.0075C42.9992 35.0537 43.0847 35.0775 43.1703 35.1237H43.1934C43.2927 35.1638 43.3865 35.2185 43.4721 35.2863C43.5796 35.3325 43.6652 35.4025 43.7496 35.4487C43.7727 35.4487 43.7727 35.4738 43.7923 35.4738C43.8779 35.52 43.9427 35.59 44.0282 35.6362L44.0513 35.6613C44.308 35.87 44.5439 36.1013 44.7798 36.3325L44.8029 36.3575C45.0168 36.6125 45.2307 36.89 45.4042 37.1912C45.9789 38.1413 46.2844 39.2523 46.2829 40.3875C46.2829 43.6075 43.8617 46.225 40.8832 46.225C37.9047 46.225 35.4835 43.6075 35.4835 40.3875C35.4604 37.6775 37.1971 35.385 39.5535 34.7375L39.5489 34.7225ZM18.467 34.56C21.4455 34.56 23.8667 37.1775 23.8667 40.3975C23.8667 43.6175 21.4455 46.235 18.467 46.235C15.4885 46.235 13.0673 43.6175 13.0673 40.3975C13.0673 37.1775 15.4885 34.56 18.467 34.56ZM68.3014 54.6412C67.8296 57.6062 66.1392 60.2 63.6533 61.7513C61.3176 63.21 58.4467 63.6737 55.4265 64.1387C53.7766 64.3937 52.041 64.6713 50.3703 65.1113C45.9141 66.2925 41.629 68.6088 37.4723 70.8325C32.1593 73.6825 27.147 76.3675 22.4965 76.3675C20.0753 76.3675 17.912 75.6262 15.855 74.075C11.1422 70.555 11.3769 63.9538 11.9353 60.34C12.4499 56.9588 13.8848 53.785 15.2561 50.7525C15.3417 50.5675 15.4064 50.405 15.492 50.22C15.9637 50.405 16.4563 50.545 16.972 50.6375C16.158 55.5475 18.4716 60.62 22.9706 63.1212L23.7846 63.5838L24.6633 63.2363C28.4131 61.7988 31.883 59.4612 34.947 56.3337C36.6398 54.6273 38.136 52.7064 39.4032 50.6125C39.8958 50.705 40.3883 50.7288 40.8832 50.7288C45.3394 50.7288 49.0891 47.4163 50.1598 42.97H53.7592C54.8299 47.44 58.5808 50.7288 63.0358 50.7288C64.74 50.7292 66.4128 50.233 67.8782 49.2925C68.4355 51.0425 68.6066 52.8363 68.306 54.6425L68.3014 54.6412Z" fill="#99424F"/>
</g>
</svg>
