<svg width="82" height="82" viewBox="0 0 82 82" fill="none" xmlns="http://www.w3.org/2000/svg">
<g id="js">
<path d="M15.9879 71.9016C11.5181 71.543 7.42648 69.5662 4.53583 66.3685C2.84587 64.4991 0.678001 60.8806 1.04003 60.5335C1.38716 60.2008 9.94698 54.6364 10.1118 54.6364C10.2123 54.6364 10.5275 55.0854 10.8122 55.6341C13.0456 59.9396 15.766 61.5389 19.4189 60.6941C21.998 60.0976 23.2157 58.3679 23.5587 54.8139C23.6623 53.7409 23.733 44.4953 23.7348 31.7849L23.7378 10.5486H35.0579L35.0525 33.0201C35.0493 46.2529 34.9783 56.07 34.8797 56.8985C33.6407 67.3144 26.7748 72.767 15.9879 71.9016ZM59.9502 71.9151C52.2937 71.3341 46.3232 67.764 42.5254 61.4958C41.8665 60.4084 41.3274 59.4633 41.3274 59.3956C41.3274 59.2766 49.8653 53.8184 50.4053 53.5923C50.5929 53.5137 50.8722 53.8088 51.3411 54.5809C52.9677 57.2599 55.3346 59.3419 57.8055 60.2672C59.6186 60.9461 62.9205 61.1201 64.6517 60.6278C67.8841 59.7087 69.5971 57.6662 69.5971 54.7314C69.5971 51.5592 67.949 49.7591 62.7455 47.2479C61.454 46.6247 59.2346 45.5546 57.8135 44.87C50.5291 41.3611 46.9845 37.6607 45.4069 31.918C44.7898 29.6719 44.6149 25.3189 45.0495 23.0257C45.6665 19.7701 46.8573 17.3912 49.0599 15.0144C51.4931 12.3886 54.1369 10.9591 57.8721 10.2497C60.1395 9.81904 64.8107 9.96589 66.8923 10.5332C71.0139 11.6565 74.2762 14.1877 76.7412 18.1749L77.7244 19.7652L77.2782 20.1453C77.0327 20.3543 75.0373 21.7812 72.8438 23.3162L68.8558 26.1069L68.0664 24.8113C66.484 22.214 64.6716 21.0182 62.0725 20.8565C59.3449 20.6868 57.4951 21.6705 56.5367 23.8003C56.1199 24.7263 56.0458 25.1197 56.0583 26.3391C56.0936 29.7849 57.5776 31.1542 65.0996 34.6822C70.8906 37.3983 73.9575 39.3568 76.39 41.8924C79.7834 45.4297 81.1835 49.5192 80.9809 55.3015C80.8689 58.4961 80.5887 59.7946 79.4574 62.3616C76.5384 68.9845 69.1318 72.6118 59.9502 71.9151Z" fill="#31322F"/>
</g>
</svg>
