<svg width="82" height="82" viewBox="0 0 82 82" fill="none" xmlns="http://www.w3.org/2000/svg">
<g id="psql">
<g id="psql_2">
<g id="Group">
<g id="Vector">
<path d="M59.6233 59.2156C60.1043 54.8804 59.9597 54.2478 62.9402 54.9475L63.6986 55.0209C65.9915 55.1328 68.9897 54.6216 70.7809 53.7367C74.5729 51.8326 76.8216 48.6507 73.0827 49.4877C64.5544 51.3918 63.9347 48.2642 63.9347 48.2642C72.944 33.7922 76.7124 15.4226 73.4575 10.9277C64.5927 -1.33996 49.2447 4.46161 48.988 4.61496L48.9054 4.63093C47.2233 4.24757 45.3642 4.02394 43.21 3.99199C39.3501 3.9281 36.4227 5.08777 34.1977 6.91195C34.1977 6.91195 6.82153 -5.2982 8.0934 22.2689C8.36489 28.1343 15.8545 66.6752 24.7959 55.0146C28.0685 50.7528 31.2261 47.1524 31.2261 47.1524C32.7901 48.2801 34.6699 48.8552 36.6382 48.6475L36.7916 48.507C36.7462 49.0592 36.767 49.6154 36.8536 50.1618C34.5518 52.9476 35.2306 53.4364 30.627 54.4619C25.9704 55.5002 28.7089 57.3499 30.4913 57.8355C32.6573 58.4233 37.6681 59.2539 41.0558 54.1232L40.92 54.7079C41.823 55.4906 41.7611 60.3305 41.8938 63.7872C42.0266 67.2439 42.2362 70.4737 42.8883 72.3746C43.5405 74.2754 44.3048 79.1793 50.3543 77.8055C55.4093 76.6331 59.2751 74.9431 59.6292 59.2443" fill="black"/>
<path d="M59.6233 59.2156C60.1043 54.8804 59.9597 54.2478 62.9402 54.9475L63.6986 55.0209C65.9915 55.1328 68.9897 54.6216 70.7809 53.7367C74.5729 51.8326 76.8216 48.6507 73.0827 49.4877C64.5544 51.3918 63.9347 48.2642 63.9347 48.2642C72.944 33.7922 76.7124 15.4226 73.4575 10.9277C64.5927 -1.33996 49.2447 4.46161 48.988 4.61496L48.9054 4.63093C47.2233 4.24757 45.3642 4.02394 43.21 3.99199C39.3501 3.9281 36.4227 5.08777 34.1977 6.91195C34.1977 6.91195 6.82153 -5.2982 8.0934 22.2689C8.36489 28.1343 15.8545 66.6752 24.7959 55.0146C28.0685 50.7528 31.2261 47.1524 31.2261 47.1524C32.7901 48.2801 34.6699 48.8552 36.6382 48.6475L36.7916 48.507C36.7462 49.0592 36.767 49.6154 36.8536 50.1618C34.5518 52.9476 35.2306 53.4364 30.627 54.4619C25.9704 55.5002 28.7089 57.3499 30.4913 57.8355C32.6573 58.4233 37.6681 59.2539 41.0558 54.1232L40.92 54.7079C41.823 55.4906 41.7611 60.3305 41.8938 63.7872C42.0266 67.2439 42.2362 70.4737 42.8883 72.3746C43.5405 74.2754 44.3048 79.1793 50.3543 77.8055C55.4093 76.6331 59.2751 74.9431 59.6292 59.2443" stroke="black" stroke-width="5.3725"/>
</g>
<path id="Vector_2" d="M73.0561 49.5165C64.5278 51.4205 63.9081 48.2929 63.9081 48.2929C72.9174 33.8209 76.6858 15.4514 73.4338 10.9564C64.5691 -1.31122 49.2211 4.49355 48.9644 4.6437L48.8817 4.65968C47.0071 4.25247 45.1012 4.03747 43.1893 4.01754C39.3294 3.95365 36.4021 5.11333 34.177 6.9375C34.177 6.9375 6.7979 -5.27264 8.07272 22.2944C8.34421 28.1599 15.8338 66.7008 24.7752 55.0401C28.0685 50.7528 31.226 47.1524 31.226 47.1524C32.7901 48.2801 34.6698 48.8552 36.6381 48.6475L36.7916 48.5069C36.7465 49.0592 36.7673 49.6154 36.8536 50.1618C34.5518 52.9476 35.2305 53.4364 30.627 54.4619C25.9704 55.5001 28.7089 57.3499 30.4913 57.8355C32.6573 58.4233 37.668 59.2539 41.0557 54.1232L40.92 54.7079C41.823 55.4906 42.4545 59.797 42.3483 63.7009C42.242 67.6049 42.1712 70.282 42.8794 72.3777C43.5877 74.4735 44.2959 79.1825 50.3454 77.8087C55.4004 76.6363 58.0179 73.5917 58.3868 68.5249C58.6465 64.9213 59.2308 65.4516 59.2721 62.2314L59.7443 60.7043C60.2843 55.8164 59.8328 54.2414 62.9461 54.9762L63.7045 55.0497C65.9974 55.1615 68.9985 54.6504 70.7573 53.7654C74.5493 51.8614 76.795 48.6795 73.0561 49.5165Z" fill="#336791"/>
<path id="Vector_3" d="M42.3134 52.3095C42.3262 51.8154 41.936 51.4044 41.4419 51.3916C40.9478 51.3787 40.5368 51.7689 40.524 52.263L42.3134 52.3095ZM50.9326 77.8822L51.1342 78.7542L51.1348 78.7541L50.9326 77.8822ZM58.6258 69.4259L59.5097 69.5664C59.5116 69.5541 59.5133 69.5418 59.5148 69.5295L58.6258 69.4259ZM61.3827 53.5016C61.44 53.0107 61.0883 52.5663 60.5974 52.5091C60.1064 52.4518 59.662 52.8035 59.6048 53.2944L61.3827 53.5016ZM33.8029 7.52589C34.2549 7.72596 34.7835 7.52174 34.9836 7.06975C35.1836 6.61775 34.9794 6.08915 34.5274 5.88908L33.8029 7.52589ZM8.04315 22.1475L7.1491 22.1888L7.14911 22.1889L8.04315 22.1475ZM24.7457 54.8932L25.4559 55.4378L25.456 55.4376L24.7457 54.8932ZM31.6304 47.8959C31.9581 47.5259 31.9238 46.9602 31.5538 46.6325C31.1838 46.3048 30.6181 46.3391 30.2904 46.7092L31.6304 47.8959ZM49.2482 5.34135C49.7164 5.18295 49.9675 4.67496 49.8091 4.20674C49.6507 3.73851 49.1428 3.48735 48.6745 3.64576L49.2482 5.34135ZM73.4013 10.8127L74.1269 10.2887L74.1266 10.2882L73.4013 10.8127ZM63.1158 47.6761C62.8545 48.0958 62.9829 48.6477 63.4026 48.9089C63.8222 49.1702 64.3741 49.0418 64.6354 48.6221L63.1158 47.6761ZM64.758 47.977C64.6665 47.4912 64.1985 47.1717 63.7127 47.2632C63.227 47.3548 62.9074 47.8228 62.999 48.3085L64.758 47.977ZM73.0265 49.3631L73.2215 50.2366L73.2221 50.2365L73.0265 49.3631ZM70.7248 53.6121L70.3229 52.8124L70.3224 52.8126L70.7248 53.6121ZM60.5233 53.4204L59.6295 53.4677L59.6295 53.4681L60.5233 53.4204ZM63.908 48.1428L64.7848 47.963L64.7846 47.9619L63.908 48.1428ZM60.7033 42.5712L61.5401 42.2537L61.5395 42.2521L60.7033 42.5712ZM64.3153 22.3392L64.1626 23.221L64.5088 23.213L64.3153 22.3392ZM36.7945 50.0532L37.2208 49.2662C36.8447 49.0625 36.377 49.1534 36.1045 49.4831L36.7945 50.0532ZM30.5679 54.3533L30.3733 53.4797L30.3732 53.4797L30.5679 54.3533ZM30.4322 57.7269L30.1969 58.5904L30.1978 58.5906L30.4322 57.7269ZM40.9967 54.0114L41.7437 54.5044L41.7437 54.5043L40.9967 54.0114ZM39.5743 49.3216L39.2084 50.1384L39.2094 50.1388L39.5743 49.3216ZM36.8004 50.0564L36.3741 50.8433C36.7505 51.0473 37.2187 50.956 37.491 50.6257L36.8004 50.0564ZM35.7581 50.1329C35.8286 50.6221 36.2823 50.9616 36.7716 50.8911C37.2608 50.8206 37.6003 50.3669 37.5298 49.8777L35.7581 50.1329ZM37.9218 44.1398L37.0753 43.849L37.0751 43.8495L37.9218 44.1398ZM39.6392 26.4507L40.5169 26.2756L40.5169 26.2755L39.6392 26.4507ZM27.0091 36.6131L27.8967 36.7278L27.8968 36.7271L27.0091 36.6131ZM36.6809 49.4291C37.1725 49.3777 37.5294 48.9375 37.4781 48.4459C37.4267 47.9543 36.9865 47.5974 36.4949 47.6487L36.6809 49.4291ZM65.1766 22.3007C65.1518 21.807 64.7315 21.4269 64.2378 21.4517C63.7442 21.4765 63.3641 21.8968 63.3888 22.3905L65.1766 22.3007ZM63.604 30.409L62.7094 30.382L62.7094 30.3823L63.604 30.409ZM61.624 44.8896C61.364 45.31 61.4942 45.8615 61.9146 46.1215C62.335 46.3814 62.8866 46.2513 63.1465 45.8309L61.624 44.8896ZM40.524 52.263C40.4055 56.8243 40.4201 61.4063 40.5679 65.1301C40.6417 66.9912 40.7492 68.6473 40.8914 69.9837C41.0304 71.2903 41.2105 72.378 41.4596 73.0453L43.1365 72.4194C42.9754 71.9877 42.811 71.1068 42.6713 69.7943C42.5348 68.5116 42.4295 66.8983 42.3565 65.0592C42.2106 61.3824 42.1957 56.8404 42.3134 52.3095L40.524 52.263ZM41.4596 73.0453C41.8682 74.1402 42.5742 75.9686 44.0495 77.3169C45.5883 78.7232 47.8512 79.5132 51.1342 78.7542L50.731 77.0102C47.9615 77.6505 46.3174 76.9646 45.2571 75.9956C44.1334 74.9686 43.5483 73.5225 43.1365 72.4194L41.4596 73.0453ZM51.1348 78.7541C53.7553 78.1463 55.6814 77.2228 57.045 75.6886C58.4022 74.1616 59.1001 72.1428 59.5097 69.5664L57.7419 69.2853C57.3547 71.7214 56.7335 73.3446 55.7071 74.4995C54.687 75.6472 53.1649 76.4457 50.7304 77.0104L51.1348 78.7541ZM59.5148 69.5295L61.3827 53.5016L59.6048 53.2944L57.7368 69.3222L59.5148 69.5295ZM34.1652 6.70748C34.5274 5.88908 34.527 5.88888 34.5265 5.88865C34.5261 5.88851 34.5255 5.88822 34.5249 5.88794C34.5236 5.88738 34.5219 5.88663 34.5198 5.88571C34.5156 5.88386 34.5097 5.88129 34.5022 5.87803C34.4872 5.87151 34.4657 5.86222 34.4379 5.85036C34.3823 5.82663 34.3015 5.79259 34.1971 5.74984C33.9885 5.66437 33.6857 5.54397 33.3025 5.4014C32.5365 5.11645 31.4467 4.742 30.1433 4.38086C27.5478 3.66166 24.0551 2.98085 20.5708 3.19654C17.0804 3.4126 13.5113 4.5367 10.9124 7.51688C8.31769 10.4922 6.82427 15.1644 7.1491 22.1888L8.93719 22.1061C8.62462 15.347 10.0777 11.1974 12.2614 8.69335C14.4409 6.19413 17.4819 5.18117 20.6814 4.98312C23.8869 4.78469 27.1638 5.41271 29.6653 6.10586C30.9105 6.4509 31.9511 6.80851 32.6784 7.07908C33.0418 7.21427 33.3264 7.32749 33.5185 7.4062C33.6145 7.44554 33.6873 7.47624 33.7353 7.49672C33.7593 7.50696 33.7771 7.51464 33.7884 7.51957C33.7941 7.52203 33.7982 7.5238 33.8006 7.52487C33.8018 7.5254 33.8026 7.52575 33.803 7.52592C33.8032 7.52601 33.8032 7.526 33.8032 7.52604C33.8031 7.52599 33.8029 7.52589 34.1652 6.70748ZM7.14911 22.1889C7.28963 25.2249 9.25172 36.4107 12.2956 45.3802C13.8084 49.8378 15.6414 53.9167 17.7533 56.1376C18.8174 57.2565 20.0802 58.037 21.5146 57.9686C22.9523 57.8999 24.2632 56.9932 25.4559 55.4378L24.0354 54.3486C22.9928 55.7083 22.1137 56.1479 21.4293 56.1806C20.7416 56.2134 19.9502 55.8502 19.0505 54.9041C17.2348 52.9948 15.502 49.2582 13.9907 44.805C10.9866 35.9528 9.06815 24.9355 8.93719 22.1061L7.14911 22.1889ZM25.456 55.4376C27.0778 53.3215 28.6227 51.4345 29.7625 50.0762C30.3322 49.3973 30.8002 48.8511 31.1253 48.4751C31.2879 48.2871 31.4147 48.1418 31.5006 48.0436C31.5435 47.9946 31.5763 47.9574 31.5981 47.9326C31.609 47.9201 31.6172 47.9108 31.6227 47.9047C31.6254 47.9016 31.6274 47.8994 31.6287 47.8979C31.6293 47.8972 31.6298 47.8966 31.6301 47.8963C31.6302 47.8961 31.6303 47.896 31.6304 47.896C31.6304 47.8959 31.6304 47.8959 31.6304 47.8959C31.6304 47.8959 31.6304 47.8959 30.9604 47.3025C30.2904 46.7092 30.2904 46.7092 30.2903 46.7093C30.2903 46.7093 30.2902 46.7094 30.2902 46.7094C30.29 46.7096 30.2899 46.7098 30.2897 46.71C30.2892 46.7105 30.2886 46.7112 30.2878 46.712C30.2863 46.7138 30.284 46.7164 30.281 46.7198C30.2751 46.7265 30.2663 46.7364 30.2548 46.7495C30.2319 46.7755 30.198 46.814 30.1539 46.8644C30.0657 46.9652 29.9364 47.1134 29.7713 47.3043C29.4411 47.6862 28.9674 48.2392 28.3914 48.9256C27.2397 50.298 25.6773 52.2062 24.0353 54.3487L25.456 55.4376ZM48.6745 3.64576C48.6631 3.64962 48.6797 3.64353 48.7084 3.63622C48.7172 3.63398 48.7346 3.62968 48.7573 3.62534C48.7711 3.6227 48.8273 3.61184 48.9008 3.61002C48.9434 3.61 49.0569 3.61992 49.1268 3.63342C49.2528 3.67303 49.56 3.87709 49.7031 4.06793C49.799 4.32713 49.7753 4.77348 49.7072 4.93341C49.6589 5.01179 49.5675 5.12388 49.53 5.16065C49.4663 5.21964 49.4083 5.25518 49.3967 5.26237C49.375 5.27588 49.3575 5.2854 49.3489 5.28999C49.3312 5.29943 49.3185 5.30533 49.3161 5.30642C49.3097 5.30939 49.3104 5.30888 49.3222 5.304C49.3689 5.28463 49.4808 5.24139 49.6564 5.18042C50.0031 5.06009 50.5691 4.88078 51.3074 4.69396C52.7859 4.3198 54.9353 3.92066 57.3857 3.89619C62.2781 3.84732 68.299 5.2839 72.6761 11.3371L74.1266 10.2882C69.3025 3.61695 62.6312 2.05371 57.3678 2.10627C54.7404 2.13252 52.446 2.5594 50.8682 2.95866C50.0783 3.15856 49.463 3.3528 49.0695 3.48938C48.8751 3.55687 48.7271 3.61292 48.636 3.65075C48.6133 3.66017 48.5872 3.67132 48.5618 3.68313C48.5499 3.68864 48.5297 3.69825 48.5064 3.71067C48.495 3.71674 48.4752 3.72756 48.4517 3.74219C48.4383 3.7505 48.379 3.78697 48.3145 3.8467C48.2766 3.88385 48.1849 3.99626 48.1365 4.07491C48.0682 4.23512 48.0445 4.68169 48.1405 4.94108C48.2837 5.1321 48.5912 5.33628 48.7174 5.37597C48.7877 5.38956 48.9018 5.39952 48.945 5.39948C49.0196 5.39763 49.0775 5.38655 49.0936 5.38348C49.1185 5.37871 49.1386 5.37379 49.1507 5.37073C49.1923 5.3601 49.2301 5.34747 49.2482 5.34135L48.6745 3.64576ZM72.6757 11.3367C73.3071 12.211 73.691 13.9458 73.6544 16.4948C73.6186 18.9908 73.184 22.0928 72.3636 25.5318C70.7231 32.409 67.5654 40.5285 63.1158 47.6761L64.6354 48.6221C69.1951 41.2977 72.4232 32.9965 74.1048 25.9472C74.9455 22.423 75.406 19.1853 75.4442 16.5205C75.4817 13.9088 75.1185 11.6619 74.1269 10.2887L72.6757 11.3367ZM63.8785 48.1428C62.999 48.3085 62.9992 48.3097 62.9995 48.311C62.9995 48.3114 62.9998 48.3126 62.9999 48.3134C63.0003 48.3151 63.0006 48.3168 63.001 48.3186C63.0017 48.3222 63.0025 48.326 63.0033 48.33C63.005 48.338 63.0069 48.3468 63.0092 48.3563C63.0137 48.3755 63.0194 48.3979 63.0266 48.4231C63.041 48.4735 63.0614 48.5356 63.09 48.6068C63.1472 48.7496 63.2372 48.9285 63.3771 49.1236C63.6612 49.5198 64.1289 49.9517 64.8782 50.2865C66.3524 50.9452 68.8654 51.2091 73.2215 50.2366L72.8315 48.4896C68.6298 49.4276 66.5688 49.0813 65.6084 48.6522C65.1405 48.4431 64.9258 48.2117 64.8318 48.0806C64.7826 48.012 64.7596 47.9613 64.7512 47.9403C64.7469 47.9296 64.7463 47.9263 64.7479 47.9318C64.7486 47.9346 64.75 47.9396 64.7517 47.947C64.7526 47.9507 64.7536 47.9551 64.7547 47.96C64.7552 47.9625 64.7557 47.9652 64.7563 47.968C64.7566 47.9694 64.7569 47.9709 64.7571 47.9724C64.7573 47.9731 64.7575 47.9743 64.7576 47.9746C64.7578 47.9758 64.758 47.977 63.8785 48.1428ZM73.2221 50.2365C73.6479 50.1412 73.9395 50.1149 74.1236 50.1217C74.3248 50.1291 74.2985 50.1715 74.2082 50.0971C74.0667 49.9806 74.0437 49.8161 74.0489 49.7581C74.0503 49.7423 74.0434 49.8161 73.9355 49.9921C73.4905 50.7182 72.148 51.8952 70.3229 52.8124L71.1266 54.4118C73.0906 53.4249 74.7684 52.0589 75.4618 50.9273C75.6385 50.6389 75.7985 50.291 75.8318 49.9172C75.8689 49.5011 75.7429 49.042 75.3459 48.7152C75.0001 48.4305 74.566 48.3467 74.1894 48.3329C73.7958 48.3184 73.3399 48.3758 72.831 48.4897L73.2221 50.2365ZM70.3224 52.8126C68.9262 53.5153 66.5503 53.9921 64.49 54.017C63.462 54.0294 62.5959 53.9274 62.0133 53.7318C61.7226 53.6342 61.5571 53.5311 61.4751 53.4552C61.4095 53.3945 61.417 53.3736 61.417 53.3727L59.6295 53.4681C59.6895 54.591 60.6437 55.1601 61.4435 55.4287C62.2985 55.7157 63.3924 55.8204 64.5116 55.8069C66.7457 55.7798 69.413 55.2742 71.1271 54.4115L70.3224 52.8126ZM61.417 53.3731C61.3482 52.0739 61.5347 51.3046 61.7672 50.8428C61.9882 50.404 62.2843 50.1752 62.6046 50.019C62.7749 49.936 62.9553 49.8723 63.1532 49.8101C63.3226 49.7569 63.5806 49.6837 63.7773 49.6087C63.9705 49.535 64.2889 49.397 64.5249 49.109C64.8106 48.7604 64.8628 48.3435 64.7848 47.963L63.0313 48.3225C63.0248 48.291 63.0157 48.1266 63.1404 47.9744C63.2155 47.8828 63.2733 47.8851 63.1395 47.9362C63.0092 47.9858 62.8739 48.0217 62.6169 48.1023C62.3884 48.1741 62.1092 48.2691 61.82 48.4101C61.2215 48.702 60.5993 49.1824 60.1685 50.0377C59.7494 50.8699 59.5507 51.9795 59.6295 53.4677L61.417 53.3731ZM64.7846 47.9619C64.6862 47.485 64.4558 47.0611 64.2126 46.6867C63.9731 46.3181 63.6613 45.9109 63.3687 45.5112C62.7652 44.6868 62.0827 43.6838 61.5401 42.2537L59.8665 42.8887C60.4924 44.5383 61.2824 45.6917 61.9243 46.5685C62.2543 47.0194 62.5083 47.349 62.7115 47.6618C62.911 47.9689 63 48.1712 63.0315 48.3236L64.7846 47.9619ZM61.5395 42.2521C61.3888 41.8572 61.0413 41.183 60.6358 40.396C60.2154 39.5802 59.6972 38.5777 59.1588 37.4596C58.0773 35.2137 56.9407 32.5543 56.3754 30.1014C55.7964 27.5887 55.8869 25.5927 56.8535 24.3954C57.7789 23.2492 59.8284 22.4706 64.1626 23.221L64.4679 21.4573C59.9728 20.679 57.0281 21.3296 55.4608 23.271C53.9347 25.1613 54.0338 27.9113 54.6311 30.5033C55.2422 33.1552 56.4496 35.9592 57.546 38.2362C58.0966 39.3795 58.6258 40.4031 59.0446 41.2159C59.4783 42.0576 59.7618 42.6143 59.8671 42.8903L61.5395 42.2521ZM64.5088 23.213C64.801 23.1483 64.9868 22.9647 65.086 22.8159C65.1773 22.679 65.2148 22.5466 65.2321 22.4698C65.2667 22.3149 65.2653 22.1662 65.2604 22.0673C65.25 21.8526 65.2064 21.5939 65.145 21.3194C65.0193 20.7581 64.7882 19.9968 64.4472 19.1084C63.7642 17.3287 62.6172 14.9785 60.9169 12.6237C57.5146 7.91158 51.8353 3.10939 43.2005 2.97251L43.1721 4.76228C51.0627 4.88737 56.2725 9.24917 59.4657 13.6715C61.0631 15.8839 62.1404 18.0936 62.7761 19.7498C63.0945 20.5795 63.2963 21.2552 63.3982 21.7104C63.4505 21.9442 63.4694 22.0886 63.4726 22.1545C63.4746 22.1959 63.4678 22.1568 63.4853 22.0788C63.4939 22.0403 63.5199 21.9382 63.5967 21.8229C63.6814 21.6959 63.8498 21.5255 64.1218 21.4653L64.5088 23.213ZM43.2005 2.97251C38.846 2.90348 35.5604 4.32557 33.1154 6.52881C30.6911 8.71349 29.1409 11.6217 28.1443 14.4715C27.1463 17.3256 26.685 20.1744 26.4717 22.2999C26.3648 23.3652 26.3196 24.2548 26.3012 24.8807C26.292 25.1938 26.2894 25.4412 26.2892 25.612C26.2892 25.6974 26.2896 25.7637 26.2902 25.8095C26.2904 25.8324 26.2907 25.8501 26.2909 25.8626C26.291 25.8689 26.2911 25.8738 26.2912 25.8774C26.2913 25.8791 26.2913 25.8806 26.2913 25.8817C26.2913 25.8823 26.2913 25.8828 26.2913 25.8831C26.2914 25.8836 26.2914 25.884 27.1861 25.8629C28.0809 25.8418 28.0809 25.842 28.0809 25.8422C28.0809 25.8421 28.0809 25.8422 28.0809 25.8421C28.0809 25.8418 28.0809 25.8413 28.0808 25.8404C28.0808 25.8385 28.0807 25.8354 28.0807 25.8309C28.0805 25.822 28.0803 25.8079 28.08 25.7887C28.0796 25.7502 28.0792 25.6916 28.0792 25.614C28.0794 25.4589 28.0817 25.2284 28.0904 24.9334C28.1078 24.3431 28.1507 23.4959 28.2528 22.4786C28.4574 20.4391 28.8977 17.7398 29.834 15.0623C30.7718 12.3805 32.1888 9.77346 34.3137 7.85854C36.4181 5.96218 39.2639 4.70033 43.1721 4.76228L43.2005 2.97251ZM36.1045 49.4831C35.508 50.205 35.0998 50.7847 34.7757 51.2275C34.4442 51.6804 34.2214 51.9597 33.9595 52.1858C33.4553 52.6211 32.6834 52.9651 30.3733 53.4797L30.7625 55.2268C33.056 54.7159 34.2465 54.3028 35.1292 53.5408C35.5608 53.1683 35.8877 52.739 36.2201 52.2847C36.56 51.8204 36.93 51.2942 37.4844 50.6233L36.1045 49.4831ZM30.3732 53.4797C29.175 53.7468 28.286 54.0962 27.7391 54.5793C27.4495 54.8351 27.2183 55.162 27.1332 55.5631C27.0471 55.9684 27.1329 56.3425 27.2844 56.6465C27.5641 57.2079 28.1112 57.6265 28.5899 57.9106C29.0977 58.2119 29.6781 58.449 30.1969 58.5904L30.6674 56.8633C30.295 56.7619 29.8648 56.5857 29.5034 56.3712C29.1128 56.1394 28.9321 55.9397 28.8865 55.8481C28.8753 55.8256 28.899 55.8646 28.8841 55.9348C28.8701 56.0007 28.8434 55.9922 28.924 55.9209C29.1176 55.75 29.6325 55.4788 30.7627 55.2268L30.3732 53.4797ZM30.1978 58.5906C31.3363 58.8996 33.2814 59.2908 35.4193 58.8948C37.5919 58.4924 39.9085 57.2855 41.7437 54.5044L40.2496 53.5185C38.6971 55.8712 36.8145 56.8159 35.0933 57.1347C33.3373 57.46 31.694 57.1419 30.6666 56.8631L30.1978 58.5906ZM41.7437 54.5043C42.4611 53.417 42.4153 52.0908 42.0506 51.0265C41.6899 49.974 40.9414 48.9519 39.9392 48.5044L39.2094 50.1388C39.6237 50.3238 40.1027 50.864 40.3573 51.6068C40.6079 52.338 40.5651 53.0404 40.2496 53.5185L41.7437 54.5043ZM39.9402 48.5048C39.611 48.3573 39.0103 48.0797 38.2862 48.1487C37.5173 48.2219 36.7957 48.655 36.1098 49.4871L37.491 50.6257C37.9796 50.0329 38.3026 49.9452 38.4559 49.9306C38.6539 49.9118 38.853 49.9792 39.2084 50.1384L39.9402 48.5048ZM37.2267 49.2694L37.2208 49.2662L36.3682 50.8401L36.3741 50.8433L37.2267 49.2694ZM37.5298 49.8777C37.4364 49.2292 37.5285 48.4666 37.7679 47.5363C38.0078 46.6036 38.37 45.5921 38.7684 44.43L37.0751 43.8495C36.6915 44.9686 36.2967 46.0703 36.0343 47.0903C35.7713 48.1128 35.6155 49.1425 35.7581 50.1329L37.5298 49.8777ZM38.7682 44.4306C39.0542 43.5982 39.413 42.8208 39.8221 41.7901C40.2182 40.792 40.6183 39.6535 40.9091 38.2667C41.4924 35.4854 41.6181 31.7928 40.5169 26.2756L38.7615 26.6259C39.8264 31.9611 39.6806 35.4039 39.1572 37.8993C38.8947 39.151 38.5328 40.1863 38.1583 41.1297C37.7968 42.0405 37.3765 42.9723 37.0753 43.849L38.7682 44.4306ZM40.5169 26.2755C40.0657 24.0161 38.9219 22.623 37.3576 21.9692C35.8595 21.343 34.1316 21.4621 32.5907 21.8466C31.0329 22.2352 29.5454 22.9248 28.4429 23.5893C27.892 23.9214 27.4149 24.2606 27.0631 24.5707C26.8893 24.7239 26.7245 24.8889 26.5954 25.059C26.4971 25.1884 26.2911 25.4813 26.2911 25.8629H28.0811C28.0811 26.1075 27.9598 26.2221 28.0211 26.1413C28.0515 26.1012 28.1212 26.0242 28.2469 25.9134C28.4942 25.6954 28.8764 25.418 29.367 25.1224C30.3472 24.5315 31.6703 23.9211 33.024 23.5833C34.3946 23.2414 35.6791 23.2077 36.6673 23.6207C37.5893 24.0061 38.4057 24.8441 38.7616 26.626L40.5169 26.2755ZM26.2911 25.8629C26.2911 27.088 26.779 31.3794 26.1213 36.499L27.8968 36.7271C28.5729 31.4639 28.0811 26.8294 28.0811 25.8629H26.2911ZM26.1214 36.4983C25.1933 43.6775 30.3495 50.0906 36.6809 49.4291L36.4949 47.6487C31.6362 48.1564 27.0719 43.107 27.8967 36.7278L26.1214 36.4983ZM63.3888 22.3905C63.4582 23.7723 63.3223 24.9376 63.1478 26.1823C62.974 27.4213 62.7584 28.7582 62.7094 30.382L64.4986 30.436C64.544 28.9323 64.7415 27.707 64.9204 26.4309C65.0985 25.1606 65.2548 23.858 65.1766 22.3007L63.3888 22.3905ZM62.7094 30.3823C62.6734 31.5855 62.7882 32.8164 62.9192 34.0258C63.0522 35.2528 63.2012 36.4526 63.257 37.6761C63.3672 40.0964 63.1038 42.4961 61.624 44.8896L63.1465 45.8309C64.8862 43.017 65.1643 40.2125 65.0451 37.5947C64.9861 36.2992 64.8277 35.0215 64.6988 33.8329C64.5681 32.6268 64.4667 31.504 64.4986 30.4357L62.7094 30.3823Z" fill="white"/>
<g id="Vector_4">
<path d="M34.0648 25.7C34.0147 26.0738 34.6993 27.0737 35.5876 27.2079C36.4758 27.342 37.2342 26.5625 37.2844 26.1856C37.3345 25.8086 36.6499 25.3997 35.7617 25.2655C34.8734 25.1313 34.1091 25.3294 34.0648 25.7Z" fill="white"/>
<path d="M61.1076 24.9364C61.1548 25.3102 60.4731 26.3102 59.5849 26.4443C58.6966 26.5785 57.9323 25.799 57.8881 25.422C57.8438 25.0451 58.5225 24.6361 59.4108 24.502C60.299 24.3678 61.0633 24.5659 61.1076 24.9364Z" fill="white"/>
<path d="M34.0648 25.7C34.0147 26.0738 34.6993 27.0737 35.5876 27.2079C36.4758 27.342 37.2342 26.5625 37.2844 26.1856C37.3345 25.8086 36.6499 25.3997 35.7617 25.2655C34.8734 25.1313 34.1091 25.3294 34.0648 25.7Z" stroke="white" stroke-width="0.2975"/>
<path d="M61.1076 24.9364C61.1548 25.3102 60.4731 26.3102 59.5849 26.4443C58.6966 26.5785 57.9323 25.799 57.8881 25.422C57.8438 25.0451 58.5225 24.6361 59.4108 24.502C60.299 24.3678 61.0633 24.5659 61.1076 24.9364Z" stroke="white" stroke-width="0.2975"/>
</g>
</g>
</g>
</g>
</svg>
