<svg width="82" height="82" viewBox="0 0 82 82" fill="none" xmlns="http://www.w3.org/2000/svg">
<g id="react">
<g id="Vector">
<path d="M42.2644 49.5C45.6019 49.5 48.3075 46.5647 48.3075 42.8456C48.3075 39.1266 45.6019 36.1118 42.2644 36.1118C38.9269 36.1118 36.2213 39.0471 36.2213 42.7661C36.2213 46.4851 38.9269 49.5 42.2644 49.5Z" stroke="#00D8FF" stroke-width="2.73408"/>
<path d="M42.2644 46.886C44.1186 46.886 45.6217 45.0771 45.6217 42.8456C45.6217 40.6142 44.1186 38.8053 42.2644 38.8053C40.4102 38.8053 38.9071 40.6142 38.9071 42.8456C38.9071 45.0771 40.4102 46.886 42.2644 46.886Z" stroke="#00D8FF" stroke-width="2.73408"/>
<path d="M42.5 45.5C43.2417 45.5 43.8429 44.5955 43.8429 43.4798C43.8429 42.3641 43.2417 41 42.5 41C41.7583 41 41.1571 41.9045 41.1571 43.0202C41.1571 44.1359 41.7583 45.5 42.5 45.5Z" stroke="#00D8FF" stroke-width="2.73408"/>
<path fill-rule="evenodd" clip-rule="evenodd" d="M41.0006 25.7783C50.519 25.7783 59.3612 27.2612 66.0283 29.7531C74.0611 32.7556 79.5 37.3067 79.5 41.4277C79.5 45.722 73.7657 50.5569 65.1395 53.6599C58.6179 56.0058 50.0359 57.2304 41.0006 57.2304C31.737 57.2304 22.9648 56.081 16.3697 53.6341C8.02568 50.5377 2.5 45.6402 2.5 41.4277C2.5 37.3401 7.71563 32.8242 15.6356 29.8263C22.3275 27.2932 31.3893 25.7783 41.0006 25.7783Z" stroke="#00D8FF" stroke-width="2.73408"/>
<path fill-rule="evenodd" clip-rule="evenodd" d="M28.4528 33.6481C33.208 24.6961 38.8083 17.1206 44.1273 12.095C50.5359 6.0399 56.6346 3.66857 59.9225 5.72707C63.3491 7.87241 64.5918 15.2109 62.7583 24.8739C61.3734 32.1797 58.0618 40.8626 53.548 49.3605C48.92 58.0732 43.6207 65.7493 38.3742 70.7283C31.7353 77.0291 25.3168 79.3093 21.9557 77.2048C18.6941 75.1643 17.4469 68.4719 19.0115 59.5252C20.3335 51.9659 23.6511 42.6876 28.4513 33.6479L28.4528 33.6481Z" stroke="#00D8FF" stroke-width="2.73408"/>
<path fill-rule="evenodd" clip-rule="evenodd" d="M28.4647 49.3833C23.6961 40.4414 20.4494 31.3886 19.0942 23.8757C17.4629 14.8236 18.6163 7.90263 21.9013 5.83815C25.3244 3.68652 31.801 6.18243 38.596 12.7331C43.7336 17.6856 49.0092 25.1355 53.5361 33.6254C58.1774 42.3296 61.656 51.148 63.0092 58.5695C64.7215 67.9611 63.3357 75.1369 59.9776 77.2475C56.7194 79.2954 50.7569 77.1272 44.3992 71.1872C39.0275 66.1686 33.2804 58.4142 28.4647 49.3833Z" stroke="#00D8FF" stroke-width="2.73408"/>
</g>
</g>
</svg>
