<svg width="82" height="82" viewBox="0 0 82 82" fill="none" xmlns="http://www.w3.org/2000/svg">
<g id="ts">
<path d="M1 81H81V1H1V81ZM65.4692 37.8139C67.5004 38.3213 69.0504 39.2238 70.4728 40.6963C71.2103 41.4837 72.3015 42.9187 72.3903 43.2612C72.4153 43.3612 68.9366 45.6986 66.8279 47.0073C66.753 47.0573 66.4467 46.7286 66.103 46.2198C65.0742 44.7199 63.9955 44.0737 62.3443 43.9599C59.9194 43.7949 58.3445 45.0649 58.3695 47.1848C58.3695 47.8073 58.457 48.1748 58.712 48.6848C59.2457 49.7897 60.2369 50.4497 63.3468 51.7972C69.0741 54.2596 71.524 55.8845 73.0465 58.197C74.7464 60.7744 75.1289 64.8893 73.974 67.9492C72.704 71.2766 69.5554 73.5365 65.1243 74.2865C63.753 74.5277 60.5019 74.4902 59.0294 74.224C55.817 73.6527 52.7696 72.0653 50.8897 69.9828C50.1522 69.1704 48.7185 67.0492 48.8073 66.8954C48.8448 66.8454 49.176 66.6417 49.5447 66.4255L52.5159 64.713L54.8158 63.3793L55.2983 64.0918C55.9708 65.1205 57.4445 66.5292 58.3332 66.9992C60.8856 68.3454 64.3905 68.1542 66.1167 66.6055C66.8542 65.933 67.1579 65.2342 67.1579 64.2055C67.1579 63.2781 67.0454 62.8718 66.5617 62.1743C65.9392 61.2869 64.6693 60.5369 61.0619 58.9744C56.9345 57.197 55.1571 56.092 53.5321 54.3396C52.5921 53.3234 51.7034 51.6984 51.3347 50.3397C51.0297 49.2097 50.9534 46.3773 51.1947 45.2349C52.0447 41.235 55.0546 38.4663 59.3982 37.6414C60.8081 37.3751 64.0855 37.4764 65.468 37.8189L65.4692 37.8139ZM46.6886 41.1512L46.7136 44.4261H36.3014V74.0127H28.9366V44.4261H18.5245V41.2137L18.612 37.9138C18.6495 37.8639 24.9868 37.8389 32.669 37.8514L46.6498 37.8889L46.6886 41.1512Z" fill="#007ACC"/>
</g>
</svg>
