<svg width="82" height="82" viewBox="0 0 82 82" fill="none" xmlns="http://www.w3.org/2000/svg">
<g id="css">
<path d="M73.6433 1L67.6989 72.9916L40.9786 81L14.3319 73.0029L8.3938 1H73.6433Z" fill="#264DE4"/>
<path d="M41.0186 74.8787L62.6099 68.4074L67.6897 6.8873H41.0186V74.8787Z" fill="#2965F1"/>
<path d="M41.0185 33.5922H22.0068L22.7389 42.4229H41.0185V33.5922Z" fill="#EBEBEB"/>
<path d="M41.0186 15.7183H40.9903H20.5357L21.2782 24.5493H41.0186V15.7183Z" fill="#EBEBEB"/>
<path d="M23.1039 46.8385L24.2483 60.7043L40.981 65.726L41.0186 65.7147V56.5269L40.9828 56.5372L31.8854 53.8816L31.3038 46.8385H23.1039Z" fill="#EBEBEB"/>
<path d="M51.049 42.423L50.1008 53.8759L40.9903 56.5343V65.7217L57.7363 60.7043L59.7787 35.9636L59.978 33.5922L61.4527 15.7183H40.9903L40.9903 24.5493H52.5006L51.7574 33.5922H40.9903V42.423H51.049Z" fill="white"/>
</g>
</svg>
