<svg width="82" height="82" viewBox="0 0 82 82" fill="none" xmlns="http://www.w3.org/2000/svg">
<g id="express">
<path d="M81 65.6774C78.09 66.4905 76.29 65.7131 74.675 63.0485L63.19 45.588L61.53 43.1706L48.1175 63.1061C46.585 65.5043 44.9775 66.5482 42.1175 65.6994L59.2925 40.3658L43.3025 17.4826C46.0525 16.8947 47.9525 17.1942 49.64 19.9L61.5525 37.5775L73.5525 19.9962C75.09 17.598 76.7425 16.686 79.5025 17.5705L73.3025 26.6029L64.9025 38.6214C63.9025 39.9949 64.04 40.9345 64.96 42.2613L81 65.6774ZM1.02 39.9428L2.425 32.3498C6.25 17.3233 21.925 11.0792 32.735 20.3643C39.0525 25.8255 40.6225 33.5503 40.31 42.2036H4.7C4.165 57.7796 14.3675 67.1801 27.375 62.3837C31.9375 60.6997 34.625 56.7741 35.97 51.8623C36.6525 49.401 37.7825 49.0164 39.8875 49.7196C38.8125 55.8621 36.3875 60.9936 31.2625 64.205C23.605 69.0124 12.675 67.4575 6.925 60.7766C3.5 56.9005 2.085 51.9887 1.45 46.7363C1.35 45.8682 1.15 45.0413 1 44.209C1.01333 42.7878 1.02 41.3667 1.02 39.9455V39.9428ZM4.765 38.8989H36.945C36.735 27.6358 30.3525 19.6363 21.63 19.5676C12.055 19.4852 5.18 27.2952 4.765 38.8989Z" fill="black"/>
</g>
</svg>
