<svg width="82" height="82" viewBox="0 0 82 82" fill="none" xmlns="http://www.w3.org/2000/svg">
<g id="github">
<path d="M66.9 1H15.1C8.96964 1 4 6.37258 4 13V69C4 75.6274 8.96964 81 15.1 81H66.9C73.0304 81 78 75.6274 78 69V13C78 6.37258 73.0304 1 66.9 1Z" fill="#171515"/>
<path d="M21.1991 40.8438C23.6562 45.5313 28.2812 48.3438 35.9413 49.125C34.7851 50.0625 33.4843 51.7813 33.3398 53.8125C31.8944 54.75 29.1483 55.0625 26.9804 54.2813C23.9452 53.1875 22.789 46.7813 18.164 47.7188C17.1523 47.875 17.2968 48.6563 18.164 49.2813C19.6093 50.2188 21.1991 51.7813 21.9218 53.9688C23.6562 58.8125 27.2694 60.0625 33.0507 59.125V66.1563C33.0507 68.3438 30.1601 68.9688 30.1601 70.0625C30.1601 70.5313 31.1718 70.5313 31.8944 70.5313C33.3398 70.5313 36.5194 69.125 36.5194 66.9375C36.5194 65.0625 36.5194 58.8125 36.664 57.7188C36.664 55.375 37.8202 54.5938 37.8202 54.5938C37.8202 54.5938 37.9648 67.4063 37.5312 68.9688C36.953 71 36.0858 70.6875 36.0858 71.625C36.0858 73.0313 39.8437 71.9375 41.1444 68.9688C42.1562 66.625 41.7226 54.125 41.578 54.2813H42.5898C42.5898 54.2813 42.5898 60.0625 42.7343 62.5625C42.7343 65.2188 42.5898 68.6563 44.0351 70.375C45.0468 71.4688 48.2265 73.3438 48.2265 71.625C48.2265 70.6875 46.4921 69.75 46.4921 67.0938V54.75C47.9374 54.75 47.6483 58.8125 47.6483 58.8125L47.7929 66.3125C47.7929 66.3125 47.5038 69.125 50.539 70.2188C51.6952 70.6875 54.0077 70.6875 54.1523 70.0625C54.2968 69.4375 51.2616 68.3438 51.2616 66.1563V58.5C51.2616 52.875 50.539 50.8438 48.0819 49.125C55.7421 48.3438 60.5116 46.3125 62.8241 40.8438C64.2694 37.7188 64.5585 33.9688 64.5585 31.1563C64.5585 23.3438 61.0898 20.6875 60.3671 19.2813C61.3788 13.3438 60.2226 10.6875 59.6444 9.90629C57.621 9.12504 52.7069 11.7813 50.1054 13.6563C45.7694 12.25 36.5194 12.4063 33.0507 13.9688C26.6913 9.12504 23.3671 9.90629 23.3671 9.90629C23.3671 9.90629 21.1991 14.125 22.789 20.2188C20.621 23.0313 19.1757 25.0625 19.0312 30.375C19.0312 34.5938 19.4648 37.25 21.1991 40.8438Z" fill="white"/>
</g>
</svg>
