<svg width="25" height="25" viewBox="0 0 25 25" fill="none" xmlns="http://www.w3.org/2000/svg">
<g id="github">
<path d="M12.5 0.999018C5.874 0.999018 0.5 6.27831 0.5 12.7897C0.5 17.9993 3.938 22.4188 8.707 23.9782C9.306 24.0872 9.5 23.7217 9.5 23.4112V21.2162C6.162 21.9295 5.467 19.8249 5.467 19.8249C4.921 18.4621 4.134 18.0995 4.134 18.0995C3.045 17.3675 4.217 17.3832 4.217 17.3832C5.422 17.4657 6.056 18.5986 6.056 18.5986C7.126 20.4007 8.863 19.8799 9.548 19.5783C9.655 18.8168 9.966 18.296 10.31 18.0022C7.645 17.7025 4.843 16.6915 4.843 12.1747C4.843 10.8865 5.312 9.83518 6.079 9.00983C5.955 8.71212 5.544 7.51241 6.196 5.88922C6.196 5.88922 7.204 5.57284 9.497 7.09777C10.454 6.83641 11.48 6.70573 12.5 6.70082C13.52 6.70573 14.547 6.83641 15.506 7.09777C17.797 5.57284 18.803 5.88922 18.803 5.88922C19.456 7.51339 19.045 8.7131 18.921 9.00983C19.691 9.83518 20.156 10.8875 20.156 12.1747C20.156 16.7033 17.349 17.7006 14.677 17.9924C15.107 18.3579 15.5 19.0752 15.5 20.1756V23.4112C15.5 23.7247 15.692 24.0931 16.301 23.9772C21.066 22.4159 24.5 17.9973 24.5 12.7897C24.5 6.27831 19.127 0.999018 12.5 0.999018Z" fill="#38256A"/>
</g>
</svg>
