<svg width="82" height="82" viewBox="0 0 82 82" fill="none" xmlns="http://www.w3.org/2000/svg">
<g id="mongodb">
<path d="M41.2701 1.21849L43.2307 5.22819C43.6714 5.96813 44.149 6.62309 44.7114 7.23304C46.3529 9.02041 47.9117 10.8928 49.3121 12.8976C52.634 17.6473 54.8747 22.9219 56.4748 28.6264C57.4344 32.1112 57.9555 35.6859 57.9946 39.3006C58.1553 50.1073 54.753 59.3866 47.8933 67.0985C46.773 68.3184 45.5746 69.4484 44.289 70.4533C43.6095 70.4533 43.288 69.8858 43.008 69.3634C42.4868 68.4059 42.1677 67.3135 42.007 66.2261C41.766 64.9187 41.6076 63.6113 41.6856 62.2614V61.6515C41.6305 61.5215 41.0313 1.52597 41.2701 1.21849Z" fill="#599636"/>
<path d="M41.2701 1.086C41.1897 0.911014 41.1094 1.0435 41.029 1.1285C41.0681 2.00343 40.788 2.78337 40.3495 3.52832C39.8674 4.26826 39.2292 4.83572 38.5887 5.44567C35.0303 8.80042 32.2295 12.8526 29.9865 17.3848C27.0021 23.4843 25.4639 30.0213 25.0277 36.9033C24.828 39.3856 25.7486 48.145 26.4672 50.6723C28.4277 57.3818 31.9494 63.0038 36.511 67.8835C37.6313 69.0584 38.8297 70.1483 40.0694 71.1957C40.4299 71.1957 40.4689 70.8458 40.5515 70.5858C40.7095 70.0295 40.83 69.4613 40.912 68.8859L41.7155 62.3514L41.2701 1.086Z" fill="#6CAC48"/>
<path d="M43.2307 73.1081C43.311 72.1082 43.7518 71.2782 44.2316 70.4508C43.7495 70.2333 43.3914 69.8008 43.1113 69.3184C42.8702 68.8834 42.6705 68.361 42.5144 67.881C41.9542 66.0511 41.8348 64.1313 41.6741 62.2614V61.129C41.4744 61.304 41.4331 62.7839 41.4331 63.0038C41.3163 64.9801 41.0754 66.9454 40.7122 68.8859C40.5928 69.6709 40.5125 70.4533 40.0694 71.1507C40.0694 71.2382 40.0694 71.3257 40.1084 71.4557C40.8293 73.7655 41.0267 76.1179 41.1484 78.5152V79.3901C41.1484 80.435 41.1094 80.2151 41.906 80.565C42.2274 80.695 42.5856 80.74 42.907 81C43.148 81 43.187 80.7825 43.187 80.6075L43.0677 79.1701V75.1604C43.0286 74.4605 43.148 73.7655 43.2284 73.1106L43.2307 73.1081Z" fill="#C2BFBF"/>
</g>
</svg>
