<svg width="82" height="82" viewBox="0 0 82 82" fill="none" xmlns="http://www.w3.org/2000/svg">
<g id="nodejs">
<path d="M41.5 81C40.3975 81 39.3685 80.706 38.4131 80.1916L28.6377 74.3854C27.1677 73.5769 27.9027 73.2829 28.3437 73.136C30.3282 72.4745 30.6957 72.3275 32.7536 71.1516C32.9741 71.0046 33.2681 71.0781 33.4886 71.2251L40.9855 75.7083C41.2795 75.8553 41.647 75.8553 41.8675 75.7083L71.1936 58.7308C71.4876 58.5838 71.6346 58.2899 71.6346 57.9224V24.0409C71.6346 23.6734 71.4876 23.3794 71.1936 23.2324L41.8675 6.32844C41.5735 6.18145 41.206 6.18145 40.9855 6.32844L11.6594 23.2324C11.3654 23.3794 11.2184 23.7469 11.2184 24.0409V57.9224C11.2184 58.2164 11.3654 58.5838 11.6594 58.7308L19.6708 63.361C24.0073 65.5659 26.7267 62.9936 26.7267 60.4212V26.9807C26.7267 26.5397 27.0942 26.0988 27.6087 26.0988H31.3571C31.7981 26.0988 32.2391 26.4662 32.2391 26.9807V60.4212C32.2391 66.2274 29.0787 69.6082 23.5663 69.6082C21.8758 69.6082 20.5528 69.6082 16.8044 67.7708L9.08695 63.361C7.17598 62.2586 6 60.2007 6 57.9959V24.1144C6 21.9095 7.17598 19.8516 9.08695 18.7492L38.4131 1.7717C40.2505 0.742765 42.7495 0.742765 44.587 1.7717L73.9131 18.7492C75.824 19.8516 77 21.9095 77 24.1144V57.9959C77 60.2007 75.824 62.2586 73.9131 63.361L44.587 80.3385C43.6315 80.7795 42.529 81 41.5 81ZM50.5404 57.7019C37.6781 57.7019 35.0321 51.8222 35.0321 46.8245C35.0321 46.3835 35.3996 45.9426 35.9141 45.9426H39.736C40.177 45.9426 40.5445 46.2366 40.5445 46.6775C41.1325 50.5728 42.823 52.4837 50.6139 52.4837C56.7878 52.4837 59.4338 51.0873 59.4338 47.78C59.4338 45.8691 58.6988 44.4727 49.0704 43.5172C41.059 42.7088 36.0611 40.9449 36.0611 34.5508C36.0611 28.5976 41.059 25.0698 49.4379 25.0698C58.8458 25.0698 63.4762 28.3036 64.0642 35.3592C64.0642 35.5797 63.9907 35.8002 63.8437 36.0207C63.6967 36.1677 63.4762 36.3147 63.2557 36.3147H59.4338C59.0663 36.3147 58.6988 36.0207 58.6253 35.6532C57.7433 31.6109 55.4648 30.288 49.4379 30.288C42.676 30.288 41.8675 32.6399 41.8675 34.4038C41.8675 36.5351 42.823 37.1966 51.9369 38.3725C60.9772 39.5485 65.2402 41.2389 65.2402 47.5595C65.1667 54.0271 59.8747 57.7019 50.5404 57.7019Z" fill="#539E43"/>
</g>
</svg>
