<svg width="82" height="82" viewBox="0 0 82 82" fill="none" xmlns="http://www.w3.org/2000/svg">
<g id="phaser">
<path d="M73.2001 11.3769H73.2064C72.4902 10.9313 71.6916 10.7962 70.813 10.9677H70.8067C69.9269 11.1379 69.2233 11.5713 68.6983 12.2573H68.6921V12.2641C68.2546 12.8366 68.0334 13.4389 68.0334 14.087C66.1287 14.3571 64.3465 14.9053 62.6755 15.698C62.2756 13.8791 61.3595 12.5449 59.9434 11.7077L59.8272 11.6402L61.7769 9.92933C62.1893 10.244 62.6793 10.4154 63.2442 10.4384C63.7104 10.4573 64.1003 10.4006 64.4152 10.2683C64.7589 10.1359 65.0901 9.93473 65.4051 9.66466C66.0675 9.07996 66.4474 8.36159 66.5462 7.50682C66.6461 6.61965 66.4337 5.84591 65.9113 5.18425C65.6575 4.86277 65.3448 4.60173 64.9928 4.41763C64.6409 4.23354 64.2574 4.13041 63.8666 4.11478H63.8541C63.0392 4.07022 62.3043 4.33488 61.6582 4.90743L61.6519 4.91418C60.9995 5.48132 60.6208 6.197 60.5146 7.06121V7.06797C60.4271 7.81065 60.5671 8.47231 60.922 9.05701L58.6099 11.0825C57.6251 10.7314 56.5352 10.5667 55.3304 10.5964C53.6182 10.6275 51.7897 11.0488 49.8388 11.8549L48.0216 12.6854C47.8003 11.7604 47.4916 11.0488 47.0967 10.5653C46.4718 9.77809 45.8044 9.57689 45.0933 9.96174C44.4759 10.2264 43.9747 10.9367 43.591 12.0885V12.0953C43.2473 13.1269 43.0536 14.4232 43.0198 15.991C41.4076 17.3143 39.8328 18.8605 38.3018 20.6361C35.0748 20.7496 32.0465 21.3721 29.2107 22.5131H72.5377L72.0953 22.216C71.1329 21.6246 69.8644 21.2033 68.2859 20.9467C66.6087 20.6699 64.7452 20.5956 62.6993 20.7145C62.7988 20.0708 62.8647 19.4216 62.8967 18.77C62.9255 18.1353 62.9217 17.5412 62.8717 16.9875C64.5252 16.1638 66.3087 15.6156 68.2122 15.3401C68.3871 15.7236 68.7071 16.0963 69.1795 16.4663L69.2957 16.5473L69.4295 16.6283C70.1419 17.074 70.938 17.209 71.8228 17.0375C72.7077 16.866 73.4063 16.4339 73.9375 15.7479C74.5024 15.012 74.7061 14.2193 74.5624 13.3632C74.4187 12.5071 73.9688 11.8468 73.1876 11.3809L73.2001 11.3769ZM61.7844 9.19339L61.7432 9.14343L61.7844 9.18799V9.19339Z" fill="white"/>
<path d="M79.0142 23.7176C78.4018 23.6096 77.8556 23.7109 77.372 24.0201L77.3595 24.0336C77.0745 24.2159 76.8533 24.4427 76.6971 24.7007C75.806 24.5683 74.9149 24.5049 74.0225 24.5116C73.8075 23.7446 73.3126 23.0776 72.5377 22.5104H29.217C27.446 23.2153 25.7575 24.1214 24.1428 25.2246C24.1078 24.463 24.2053 23.7325 24.434 23.0289C24.7664 23.0154 25.0926 22.9155 25.4188 22.7211L25.4601 22.6941L25.5188 22.6562L25.7163 22.5118H21.4994C21.2906 22.7049 21.0706 22.8835 20.8408 23.0465C20.8283 23.0532 20.8158 23.0654 20.8121 23.0735C19.9747 23.6406 19.0248 23.9485 17.9575 23.9917C18.3012 23.5326 18.6161 23.0357 18.9123 22.5131H1.19012C1.30922 23.0358 1.49961 23.5364 1.75503 23.9985C2.2262 24.8857 3.12356 25.6283 4.44586 26.2319C5.57068 26.7478 6.87048 27.107 8.36524 27.3149L9.49507 27.4405C8.54522 28.0252 7.72035 28.6923 7.02046 29.4417C5.95437 30.58 5.44195 31.6751 5.4832 32.7271L5.12825 32.9026L3.95719 33.513L5.1695 34.0477C6.02374 34.4061 6.81852 34.9118 7.52288 35.5452C7.5255 35.7515 7.56719 35.9551 7.64536 36.1434V36.1299C7.79159 36.5269 8.04779 36.8348 8.42524 37.0481H8.43149C8.78274 37.2525 9.19237 37.3065 9.57881 37.1994H9.58506C9.87626 37.1184 10.11 36.9725 10.2899 36.7538C10.5699 36.4202 10.6799 36.0043 10.6224 35.5074L10.6049 35.4196L10.5299 35.1739C10.5174 35.155 10.5174 35.1428 10.5124 35.1361C10.3962 34.866 10.2275 34.6202 10.0062 34.4379L10.0125 34.4447C9.925 34.3691 9.83752 34.3069 9.74503 34.2556C9.50007 34.1233 9.2676 34.0598 9.03264 34.0531C8.93266 33.8586 8.85767 33.675 8.81767 33.5062C8.77643 33.3118 8.77143 33.1349 8.81143 32.9796C9.06139 32.1424 10.2437 31.4442 12.3109 30.896C12.3164 30.9138 12.3245 30.9307 12.3346 30.946L12.9345 32.4313L14.0881 34.7728L12.4684 35.8612C12.4559 35.8679 12.4434 35.8801 12.4334 35.8882C10.2262 37.4235 8.04655 39.1358 5.89688 41.0235H75.7747L75.7685 40.8669L75.7622 40.64L75.6172 40.4699C73.0364 37.3992 70.2993 34.8255 67.4185 32.7487L66.6849 32.2139L66.4924 33.3212L62.3218 31.3767C65.1926 30.7151 67.571 30.0048 69.4507 29.2499C72.2003 28.1359 73.7375 26.9841 74.0687 25.789C74.8486 25.7823 75.631 25.8336 76.4096 25.9403C76.4384 26.3616 76.6071 26.7505 76.9095 27.1151L76.9158 27.1218C77.2832 27.5809 77.7719 27.8577 78.3906 27.9658C79.0092 28.0738 79.5491 27.9658 80.0403 27.6579H80.0341C80.5815 27.3122 80.9089 26.8396 80.9714 26.236V26.2427C81.0714 25.6445 80.9089 25.0909 80.4877 24.5818C80.1203 24.1227 79.6129 23.8459 79.013 23.7392L79.0142 23.7176ZM22.5305 26.2603L22.623 26.3278L21.0395 27.6619L20.9233 27.4999L21.3657 27.2231C21.7812 26.9425 22.1712 26.6201 22.5305 26.2603Z" fill="white"/>
<path d="M34.2899 9.98604C34.2899 9.47697 34.1212 9.04081 33.79 8.68297C33.4588 8.32513 33.0564 8.14283 32.584 8.14283C32.3598 8.13797 32.137 8.18292 31.9296 8.27491C31.7221 8.36689 31.5343 8.50395 31.3779 8.67757V8.68432H31.3717C31.211 8.85332 31.0841 9.05619 30.999 9.28034C30.9138 9.50449 30.8722 9.74515 30.8767 9.98739L30.883 10.1197L30.4405 10.4465C30.1663 10.1855 29.858 9.96941 29.5257 9.8051C29.3059 9.70009 29.0779 9.61605 28.8445 9.55394C27.9997 9.33383 27.2485 9.47291 26.5912 9.97524H26.5974C25.9163 10.4654 25.5201 11.1905 25.4101 12.1466L25.1776 12.2344L25.0026 12.31C24.9277 12.341 24.8277 12.391 24.7002 12.472L24.6877 12.4788C23.9716 12.8879 23.3479 13.3295 22.8067 13.8021L22.7443 13.8588C22.1328 14.3899 21.6037 15.0231 21.177 15.7344C20.962 16.099 20.7921 16.4501 20.6771 16.7917C20.7077 16.035 20.6429 15.2773 20.4846 14.5394C20.1522 12.946 19.2673 11.701 17.835 10.8016C16.8852 10.1913 15.3941 9.62685 13.3732 9.10292H13.367L10.8674 8.47366L8.38649 7.73098C6.59552 7.10577 5.16075 6.26857 4.10216 5.26121L2.74612 4L3.13606 5.89047C3.45101 7.33128 3.46851 8.92873 3.18855 10.6977V10.7044C3.02608 11.7307 2.64739 13.3038 2.04748 15.4117C1.48257 17.4129 1.15012 18.8983 1.05139 19.8678V19.8746C0.951404 20.8495 0.998897 21.7313 1.18012 22.5239H18.9024L19.5648 21.183C19.9847 20.2202 20.2871 19.2885 20.4671 18.3824C20.5152 18.7159 20.6304 19.034 20.8046 19.3142L20.8295 19.3641L20.8645 19.4087C21.277 19.9434 21.8319 20.2391 22.5355 20.2959C22.4306 20.6604 22.4068 21.0115 22.473 21.3599C22.1643 21.8001 21.8381 22.1904 21.4882 22.5239H25.705C26.0288 22.2552 26.2817 21.8995 26.4387 21.4923V21.4855L26.4449 21.4666L26.4799 21.3667C26.6899 20.7563 26.6724 20.1784 26.4337 19.6301C26.4049 19.5424 26.3337 19.4222 26.2337 19.2656L26.1987 19.221L26.1362 19.1454C26.8233 18.6531 27.4616 18.0857 28.0409 17.4521H28.0472C28.2225 17.2634 28.3854 17.0617 28.5346 16.8484C29.3157 17.0105 30.0144 16.862 30.6368 16.4028C31.3529 15.8803 31.7616 15.0998 31.8241 14.0749C31.8405 13.857 31.8426 13.6381 31.8303 13.4199C31.8117 13.1492 31.7669 12.8812 31.6966 12.6205V12.6138C31.6554 12.4504 31.6028 12.2906 31.5391 12.1358L31.9991 11.7307C32.1826 11.8 32.3758 11.8343 32.5702 11.832C32.7935 11.8367 33.0153 11.7916 33.2217 11.6996C33.4281 11.6076 33.6148 11.4706 33.77 11.2972C33.9336 11.1288 34.0631 10.9255 34.1505 10.7003C34.2378 10.4752 34.281 10.2329 34.2775 9.98874L34.2899 9.98604ZM27.5223 11.8549C27.576 11.7734 27.6429 11.703 27.7197 11.647C27.8473 11.5592 27.9917 11.504 28.1419 11.4852C28.2922 11.4665 28.4444 11.4849 28.5871 11.5389C28.1972 11.701 27.8422 11.809 27.521 11.8536L27.5223 11.8549ZM29.5594 14.5556L29.4969 14.5934L29.6544 14.3044L29.6607 14.2855L29.6732 14.2666L29.7082 14.2031L29.9406 13.8764C29.8881 14.1653 29.7657 14.3922 29.5619 14.5556H29.5594ZM29.5007 14.4611L29.5069 14.434C29.5007 14.4476 29.5007 14.4611 29.5007 14.4651M3.67348 43.0423L3.49351 43.2124L3.48101 43.4825C3.14856 48.5422 3.80096 53.6006 5.4382 58.6549C5.4732 58.7629 5.53194 58.8574 5.60693 58.9249C5.66857 58.9814 5.73992 59.024 5.81689 59.0505L5.84564 59.0573L7.48788 59.5029H61.9794C62.3343 58.8817 62.6605 58.2444 62.9642 57.5962C63.3125 56.8901 63.614 56.1581 63.8666 55.406L64.9439 55.6018L65.5688 54.8024L65.9888 59.5015H67.5035L69.5594 59.3395H69.6057L69.6344 59.3327L69.7157 59.3138L74.3462 57.8285L73.1589 49.7102L74.9299 48.1817C75.0348 48.0871 75.0986 47.9791 75.1273 47.8481C75.6522 45.6525 75.8735 43.392 75.7897 41.0262H5.90813C5.14905 41.688 4.40356 42.3679 3.67223 43.0652" fill="white"/>
<path d="M16.2753 62.3615L16.2578 62.375C15.8503 62.6208 15.6054 63.0165 15.5179 63.5525V63.5458C15.4286 64.0262 15.5117 64.5253 15.7503 64.942V64.9488C15.8206 65.084 15.9067 65.2088 16.0066 65.3201L15.5941 66.5408C15.0467 66.2195 14.4993 65.9426 13.9519 65.7036H13.9581L13.3757 65.4579L12.6758 65.181L12.2684 69.5102C11.3248 70.7255 10.8124 71.9084 10.7311 73.0211V73.0279C10.6086 74.3782 11.0986 75.6016 12.2109 76.6738C13.3645 77.7756 14.623 78.1902 15.9853 77.9201C17.2601 77.6811 18.3387 76.8804 19.2173 75.5165L23.3704 74.2513L22.8455 73.5153L21.7207 72.0489L23.2704 71.2427C23.3579 71.2994 23.4579 71.3561 23.5616 71.4007C23.9417 71.5681 24.3642 71.5858 24.7552 71.4507H24.7489C25.1514 71.3183 25.4426 71.0793 25.6238 70.739C29.2582 72.6525 33.3226 73.6085 37.8194 73.6152C42.3862 73.6152 46.568 72.6268 50.3649 70.6445L51.3148 70.1287C53.2895 68.9903 55.1592 67.5738 56.9239 65.8805C58.9736 63.909 60.6508 61.789 61.9556 59.5069H7.48538L13.3445 61.1057L14.603 59.6015C15.1018 60.5659 15.66 61.493 16.274 62.3764L16.2753 62.3615ZM18.5749 65.2189C18.774 65.4341 18.9761 65.6461 19.1811 65.8549C19.431 66.1249 19.706 66.395 19.9784 66.6408L18.5287 68.6663L18.5224 68.6595C18.5162 68.6528 18.5049 68.646 18.4974 68.6406C18.4687 68.6136 18.4449 68.596 18.4274 68.5771H18.4212C17.9962 68.2058 17.3901 67.7399 16.609 67.1728L17.0339 65.9143C17.4013 65.9818 17.7438 65.921 18.065 65.7117H18.0587C18.2737 65.5794 18.4437 65.4093 18.5587 65.2027L18.5749 65.2189ZM20.8695 67.4469C21.5057 67.9934 22.1624 68.5115 22.838 68.9998C22.7867 69.0706 22.7419 69.1465 22.7043 69.2267V69.2334C22.5543 69.548 22.5118 69.8681 22.588 70.1894L20.917 71.0645L20.882 71.0266C20.4134 70.4966 19.9256 69.9866 19.4198 69.4981L20.8695 67.4469ZM65.975 59.4921L65.9875 59.6109L67.4898 59.4921H65.975Z" fill="white"/>
<path d="M69.247 28.6382C72.3965 27.3689 73.8188 26.0956 73.4988 24.8168C73.2951 24.0066 72.7489 23.3179 71.8116 22.7589C70.903 22.2187 69.6969 21.8082 68.1997 21.5638C65.0127 21.0412 61.1508 21.2424 56.609 22.1742L55.3842 32.0532C61.4357 31.054 66.06 29.913 69.2445 28.6369" fill="#00746B"/>
<path d="M73.1201 24.9815C72.9277 24.3064 72.3865 23.7662 71.4954 23.3449C70.6205 22.9358 69.4632 22.6698 68.0184 22.5644C64.9489 22.3187 61.232 22.74 56.8577 23.8162L55.6829 32.2733C61.5132 31.0405 65.9563 29.782 69.0258 28.4924C72.0603 27.215 73.4288 26.0442 73.1201 24.9815Z" fill="#2A5953"/>
<path d="M80.049 24.9761C79.7641 24.6304 79.3904 24.436 78.9192 24.3415C78.4481 24.2469 78.0281 24.3347 77.6569 24.5683C77.2857 24.8019 77.0695 25.1355 77.0045 25.5433C76.9395 25.9511 77.0633 26.3359 77.3482 26.683C77.6332 27.03 78.0069 27.2433 78.478 27.3244C78.9492 27.4054 79.3692 27.3244 79.7403 27.0921C80.1115 26.8598 80.334 26.5317 80.3928 26.1226C80.4515 25.7134 80.3402 25.3286 80.049 24.9761Z" fill="#F26D7D"/>
<path d="M79.9691 25.5986C79.7816 25.3718 79.5316 25.234 79.2229 25.1773C78.9376 25.1231 78.6437 25.1765 78.3906 25.3286C78.1456 25.4852 78.0006 25.6999 77.9594 25.97C77.9181 26.24 77.9944 26.4926 78.1868 26.7262C78.3793 26.9598 78.6243 27.0908 78.9317 27.1475C79.2196 27.2029 79.5164 27.1474 79.7703 26.9908C80.0203 26.8328 80.1603 26.6262 80.1953 26.3562C80.2303 26.0861 80.1603 25.8336 79.9678 25.6" fill="#B25963"/>
<path d="M70.0856 24.5656C70.0856 24.043 69.8531 23.6028 69.392 23.2315C68.9308 22.8601 68.3796 22.6914 67.726 22.6914C67.0723 22.6914 66.5137 22.8737 66.055 23.2315C65.5963 23.5893 65.3676 24.0417 65.3676 24.5656C65.3676 25.0896 65.5951 25.5284 66.055 25.8998C66.5149 26.2711 67.0736 26.4399 67.726 26.4399C68.3784 26.4399 68.932 26.2576 69.392 25.8998C69.8519 25.5419 70.0856 25.0896 70.0856 24.5656Z" fill="#FFD064"/>
<path d="M68.1634 24.4279C68.1634 24.2456 68.0759 24.0944 67.9072 23.962C67.7385 23.8297 67.5285 23.7676 67.2898 23.7676C67.068 23.7586 66.8494 23.8268 66.6661 23.962C66.4974 24.0944 66.4162 24.2321 66.4162 24.4279C66.4162 24.6237 66.4974 24.7614 66.6661 24.8938C66.8493 25.0295 67.0679 25.0981 67.2898 25.0896C67.5273 25.0896 67.7397 25.0261 67.9072 24.8938C68.0747 24.7614 68.1634 24.6237 68.1634 24.4279Z" fill="#2F211E"/>
<path d="M55.3504 11.2243C53.7007 11.2554 51.9322 11.6645 50.0512 12.4396C49.219 12.7775 48.406 13.1685 47.6166 13.6103C47.4241 12.395 47.1167 11.5335 46.6618 10.9731C46.2493 10.4506 45.8056 10.298 45.3395 10.5329C44.8558 10.7652 44.4596 11.3431 44.1459 12.3019C43.8022 13.3524 43.621 14.6866 43.6047 16.3124C41.88 17.6965 40.2028 19.3452 38.573 21.2519C42.8536 26.6884 49.6213 29.9859 58.8824 31.1499C59.3773 29.9346 59.8547 28.7085 60.3096 27.4189C61.5269 27.5202 62.5593 27.4054 63.3679 27.0854C64.1078 26.7964 64.5502 26.3994 64.6952 25.8971C64.8402 25.3947 64.649 24.941 64.1203 24.5332C63.5379 24.0741 62.658 23.7851 61.4832 23.6582C61.9731 21.7893 62.2518 20.1527 62.3206 18.7376C62.478 15.5778 61.5919 13.4199 59.6647 12.2627C58.4587 11.5389 57.0201 11.1932 55.3554 11.2311" fill="#7CC576"/>
<path d="M58.5299 13.4226C56.3228 12.5719 53.7832 12.8825 50.9236 14.3476C48.069 15.8006 45.6994 18.1232 43.806 21.3019C47.8716 23.1019 52.897 26.078 58.8786 30.2316C59.1603 29.7413 59.4246 29.2395 59.671 28.7274C59.9071 28.2356 60.1113 27.7266 60.2821 27.2042C61.207 27.2717 62.0294 27.1664 62.7443 26.8706C63.4941 26.556 63.8503 26.1347 63.7691 25.6121C63.6691 24.9775 62.6693 24.6372 60.7696 24.5926C60.9908 23.3719 61.137 22.2971 61.207 21.3586C61.3195 19.9232 61.2945 18.6579 61.1445 17.6073C61.0108 16.708 60.7946 15.9775 60.4984 15.4171C60.2449 14.9444 59.9292 14.5141 59.561 14.1397C59.2111 13.794 58.8674 13.5536 58.5299 13.4226Z" fill="#6F9B64"/>
<path d="M58.0175 17.8004C58.2275 16.6986 58 15.7236 57.3364 14.8864C56.6727 14.0492 55.7578 13.6036 54.6043 13.5226C53.477 13.4392 52.3578 13.7793 51.436 14.4854C50.4737 15.2145 49.8863 16.1328 49.6775 17.236C49.4688 18.3392 49.7025 19.3128 50.3712 20.1433C51.0336 20.9859 51.9434 21.4463 53.0958 21.5206C54.2271 21.609 55.3511 21.2638 56.2703 20.5457C57.2326 19.8219 57.8138 18.9077 58.0175 17.8004Z" fill="#FFF356"/>
<path d="M52.1534 15.6304C51.3323 16.2408 50.8311 17.0078 50.6386 17.9341C50.4462 18.8605 50.6261 19.6707 51.1686 20.3688C51.711 21.0669 52.4734 21.4572 53.4345 21.5206C54.3866 21.5924 55.332 21.303 56.1078 20.7023C56.9227 20.0987 57.4238 19.3304 57.6101 18.4067C57.7963 17.4831 57.6276 16.6702 57.0851 15.9653C56.5377 15.2726 55.7803 14.8959 54.8142 14.8256C53.8481 14.7554 52.962 15.0336 52.1522 15.6318" fill="#CBBB4E"/>
<path d="M52.2909 14.5367C52.0347 14.7325 51.8785 14.9715 51.8185 15.2524C51.7585 15.5332 51.8122 15.7925 51.9809 16.0139C52.1497 16.2354 52.3884 16.3475 52.6858 16.365C52.9833 16.3826 53.2607 16.3016 53.5182 16.1139C53.7757 15.9262 53.9256 15.6858 53.9844 15.3982C54.0154 15.2674 54.0168 15.1305 53.9883 14.9991C53.9597 14.8676 53.9022 14.7456 53.8206 14.6434C53.6519 14.4232 53.4132 14.3031 53.1158 14.2842C52.8183 14.2653 52.5408 14.3517 52.2884 14.5353" fill="#FFF356"/>
<path d="M52.9158 16.3866C52.4244 16.3568 51.9353 16.4791 51.506 16.7391C51.0811 17.0091 50.8186 17.3427 50.7249 17.7518C50.6311 18.161 50.7374 18.5134 51.0336 18.8159C51.3298 19.1184 51.7335 19.2939 52.2459 19.325C52.738 19.3542 53.2275 19.2295 53.6557 18.9658C54.0806 18.7011 54.3368 18.3676 54.4306 17.9584C54.5243 17.5493 54.4243 17.1968 54.1281 16.889C53.8319 16.5811 53.4232 16.4177 52.9158 16.3866Z" fill="#6F4D4A"/>
<path d="M63.8303 4.74269C63.1732 4.70487 62.5273 4.93906 62.0244 5.3976C61.7714 5.60799 61.5593 5.87029 61.4004 6.16945C61.2415 6.46861 61.1388 6.79874 61.0983 7.14088C61.017 7.83901 61.1858 8.45071 61.5982 8.97194C62.0106 9.49317 62.5655 9.78214 63.2404 9.81455C63.8943 9.85852 64.5388 9.62883 65.0401 9.17314C65.5813 8.70052 65.89 8.12258 65.9725 7.42445C66.055 6.72633 65.885 6.11463 65.4726 5.5934C65.0601 5.07217 64.5052 4.78725 63.8303 4.74269Z" fill="#F26D7D"/>
<path d="M65.3039 6.56294C65.1558 6.37935 64.9745 6.23047 64.7712 6.1255C64.5678 6.02052 64.3467 5.96168 64.1215 5.95259C63.6379 5.92558 63.2067 6.08492 62.8217 6.4252C62.4368 6.76549 62.2156 7.17464 62.1518 7.67697C62.0881 8.17929 62.2143 8.6222 62.5143 9.0003C62.6609 9.18521 62.842 9.33456 63.0458 9.43858C63.2495 9.5426 63.4713 9.59894 63.6966 9.6039C64.1803 9.63496 64.6115 9.47831 64.9964 9.14478C65.3813 8.81125 65.6088 8.38319 65.6663 7.88627C65.7238 7.38934 65.6038 6.94103 65.3039 6.56294Z" fill="#C25E69"/>
<path d="M70.913 11.5848C70.1731 11.7293 69.5857 12.0885 69.142 12.6611C68.6983 13.2336 68.5421 13.8561 68.6546 14.5245C68.7671 15.1929 69.1208 15.7128 69.7207 16.0774C70.3206 16.442 70.983 16.5554 71.7241 16.4109C72.4652 16.2665 73.0514 15.914 73.4951 15.3415C73.9388 14.7689 74.1012 14.1464 73.99 13.4726C73.8788 12.7988 73.5188 12.2897 72.9189 11.9251C72.319 11.5605 71.6566 11.439 70.9155 11.5848" fill="#F26D7D"/>
<path d="M71.6229 12.8933C71.1257 12.8678 70.6345 13.0201 70.2256 13.3268C69.8132 13.6347 69.5732 14.0195 69.5095 14.484C69.4457 14.9485 69.5719 15.3523 69.8944 15.6993C70.2168 16.0464 70.6443 16.234 71.1692 16.2597C71.664 16.2928 72.1546 16.1443 72.5615 15.8384C72.9814 15.5238 73.2201 15.1335 73.2839 14.6744C73.3476 14.2153 73.2139 13.8061 72.8939 13.4591C72.574 13.1121 72.149 12.9244 71.6241 12.892" fill="#C25E69"/>
<path d="M46.3043 12.7367C46.0944 12.4666 45.8669 12.4153 45.6294 12.5854C45.0995 12.9689 44.7383 14.0776 44.5458 15.914L46.8455 14.2396C46.7118 13.5239 46.5305 13.0202 46.3043 12.7367Z" fill="#6F9B64"/>
<path d="M57.6625 28.8084C52.7171 23.7622 46.6318 21.2384 39.4154 21.2384C32.199 21.2384 25.955 23.7635 20.6958 28.8084C15.4366 33.8532 12.7046 39.9595 12.4896 47.1027C12.2746 54.246 14.633 60.3428 19.576 65.3958C24.519 70.4487 30.6118 72.9711 37.8294 72.9711C45.047 72.9711 51.2835 70.446 56.5427 65.3958C61.8019 60.3455 64.5452 54.2447 64.7602 47.1027C64.9752 39.9608 62.6105 33.8627 57.6613 28.8097" fill="#C6996D"/>
<path d="M43.7885 21.3572C45.8206 22.4456 47.5629 23.534 49.0126 24.6291C50.3124 25.6108 51.4935 26.687 52.5596 27.8631C47.8891 25.334 43.2173 24.2577 38.5518 24.6358C34.3649 24.9761 30.4905 26.4426 26.9323 29.0285C23.6241 31.4321 21.0083 34.4784 19.0873 38.1649C17.1751 41.827 16.2803 45.4972 16.3902 49.1769C16.3965 49.3592 16.3902 49.5982 16.3777 49.906C16.3602 50.2517 16.3527 50.4975 16.3527 50.6352L13.9594 51.5035L13.027 55.09L15.9391 60.7533L17.71 58.6711C18.2566 59.8527 18.8937 60.9828 19.6147 62.0496C20.3021 63.057 21.152 64.1197 22.1593 65.2459C26.3462 69.891 31.5654 72.2136 37.8144 72.2136C44.0634 72.2136 49.5213 69.891 54.1868 65.2459C55.5791 63.855 56.7552 62.4777 57.7113 61.1003C58.6611 59.7473 59.4985 58.2376 60.2396 56.5821L62.6143 57.3558L63.9541 53.3291L61.287 52.6054C61.4844 51.4913 61.6119 50.353 61.6719 49.1755C61.8531 45.5323 61.6469 42.4481 61.0595 39.9257C60.5121 37.5896 59.5972 35.5101 58.3099 33.6898L59.1023 30.2911C54.9155 25.3218 49.8125 22.343 43.7847 21.3559" fill="#8F6C5E"/>
<path d="M30.6568 11.6659C30.1856 10.9178 29.5857 10.433 28.857 10.2075C28.1284 9.98199 27.4885 10.0698 26.9236 10.4776C26.3587 10.8854 26.0437 11.5092 25.9737 12.3208C25.9038 13.1323 26.1075 13.9196 26.5799 14.6677C27.0523 15.4157 27.646 15.8965 28.3734 16.1206C29.1008 16.3448 29.7532 16.2651 30.3181 15.8506C30.883 15.436 31.1929 14.8108 31.2554 13.9938C31.3179 13.1769 31.1279 12.395 30.6555 11.6524L30.6568 11.6659ZM26.7324 12.4531C26.7736 11.8617 26.9823 11.4214 27.3948 11.1257C27.8072 10.83 28.2696 10.7746 28.7746 10.9434C29.3045 11.119 29.7419 11.4782 30.0869 12.0237C30.4318 12.5692 30.5818 13.1377 30.5405 13.7359C30.4993 14.3341 30.2906 14.7757 29.8881 15.0701C29.4857 15.3644 29.0133 15.4211 28.4959 15.2456C27.9784 15.0701 27.5335 14.7109 27.1911 14.1626C26.8486 13.6144 26.6911 13.0486 26.7311 12.4518" fill="#9DDFF9"/>
<path d="M31.2067 12.7097L30.8442 11.8914L30.3031 12.4315L30.4655 13.4199L31.2054 12.6962" fill="#86ADC0"/>
<path d="M25.0826 19.1292C24.6927 19.0211 24.314 19.0914 23.9353 19.3236C23.5566 19.5559 23.2892 19.8962 23.1429 20.3364C23.0092 20.7334 22.9967 21.1034 23.1179 21.4625C22.5468 22.3497 21.8931 23.0559 21.1557 23.5691C21.5557 24.305 22.0006 24.9221 22.478 25.4123C22.8567 25.7958 23.2529 26.105 23.6779 26.3373C23.4279 24.9275 23.5491 23.6001 24.0503 22.347C24.4227 22.4415 24.7902 22.374 25.1564 22.1445C25.5269 21.9224 25.8072 21.5588 25.9425 21.125C26.0925 20.6848 26.0825 20.2689 25.9138 19.8786C25.745 19.4884 25.4638 19.2304 25.0814 19.1224" fill="#543E3C"/>
<path d="M11.831 26.926C10.025 27.6998 8.55647 28.6815 7.42789 29.8968C6.35681 31.0364 5.91938 32.1248 6.1231 33.1511C6.80424 32.9053 7.51038 32.8175 8.23152 32.881C8.46898 31.7238 9.95 30.8177 12.6683 30.1668C13.6119 32.7527 14.823 35.1253 16.309 37.2777L25.0576 33.3752C23.0705 31.4442 21.4057 29.4052 20.0484 27.2649C21.0383 26.8058 21.8544 26.1887 22.4893 25.4285C22.0119 24.937 21.5694 24.3212 21.167 23.5853C20.1247 24.3091 18.9173 24.6547 17.5501 24.6304C17.4913 27.8078 18.15 31.3146 19.5248 35.1388C17.76 33.8613 16.269 32.565 15.0505 31.2565C13.8367 29.9497 12.7603 28.5019 11.841 26.9395" fill="#FFD064"/>
<path d="M8.14403 35.29C8.08575 35.4871 8.09824 35.7006 8.17903 35.8882C8.27733 36.1479 8.45935 36.3604 8.69144 36.4864C8.93641 36.6187 9.18637 36.6565 9.43633 36.5877C9.68629 36.5188 9.86126 36.3743 9.96625 36.1421C10.021 36.03 10.051 35.9057 10.0541 35.779C10.0571 35.6523 10.033 35.5265 9.98374 35.4115C9.88376 35.1469 9.70879 34.9457 9.48382 34.8133C9.25886 34.681 8.9839 34.6432 8.75019 34.7121C8.29651 34.0369 8.12529 33.4225 8.24402 32.8688C7.53154 32.8043 6.81434 32.8961 6.13559 33.1389C5.88086 33.2228 5.63331 33.3303 5.39571 33.4603C6.40991 33.8882 7.34527 34.5083 8.15778 35.2913M15.2904 24.2645L12.3221 25.7053C12.1878 26.1249 12.0245 26.5329 11.8335 26.926C12.7528 28.4884 13.8292 29.9362 15.043 31.243C16.2603 32.5529 17.7513 33.8492 19.5173 35.1253C18.1425 31.2998 17.4851 27.7929 17.5426 24.6169C16.7829 24.5915 16.0282 24.4738 15.2929 24.2658" fill="#543E3C"/>
<path d="M8.42274 35.29C8.21902 35.7248 8.28901 36.0637 8.64395 36.3216C8.9989 36.5796 9.42383 36.5728 9.89376 36.2946C10.2137 35.2751 9.84126 34.7526 8.78768 34.7215C8.31025 34.0423 8.09404 33.4252 8.14653 32.8715H7.11544C7.19668 33.6817 7.61536 34.4892 8.40899 35.3021M25.6513 19.4141L25.1264 19.0049L23.4391 19.7922L24.109 20.1068C23.7366 20.4579 23.5904 20.9751 23.6716 21.6489C23.3855 22.1962 23.0622 22.7198 22.7043 23.2153C22.3293 23.7014 21.9644 24.0768 21.5794 24.3496L22.523 25.6013C22.738 25.5257 22.8667 25.5338 22.8955 25.6148C22.9535 24.3845 23.2835 23.1871 23.8578 22.1229C25.7388 22.5253 26.3574 21.6259 25.6638 19.4168" fill="#3A2B29"/>
<path d="M7.13169 32.8729H8.16278C8.27526 31.6144 9.75253 30.6772 12.5896 30.0669L14.8767 34.9754L15.6054 34.5163L21.272 31.3133C20.3221 29.6145 19.7572 28.2237 19.5772 27.1272C21.3482 26.687 22.3318 26.1712 22.5243 25.5743L21.5807 24.3226C20.8408 24.914 20.0559 25.2678 19.2161 25.3421C18.3949 25.4231 17.5663 25.2664 16.7239 24.864L12.0372 27.1596C10.5174 28.0724 9.2876 29.0406 8.39649 30.079C7.47164 31.1418 7.05045 32.0681 7.13419 32.8607" fill="#CBA357"/>
<path d="M25.1576 18.8267H25.1514C24.6914 18.6944 24.2365 18.77 23.7766 19.0535C23.3342 19.3236 23.0267 19.7206 22.8567 20.2283C22.713 20.6034 22.6884 21.0194 22.7867 21.4112C22.2568 22.2039 21.6569 22.8331 20.987 23.3058C19.9909 23.9917 18.8436 24.3253 17.5338 24.2996C16.8464 24.2807 16.119 24.1673 15.3554 23.9593L15.2554 23.9323L12.0759 25.4744L12.0347 25.6067C11.9175 25.974 11.7755 26.3315 11.6097 26.6762C9.81002 27.4567 8.36025 28.4505 7.21293 29.6604C6.14684 30.7947 5.66942 31.8817 5.78565 32.9283C5.60126 32.9995 5.4206 33.0815 5.24448 33.174L4.66207 33.4819L5.26823 33.752C6.21808 34.1544 7.06795 34.7026 7.81283 35.3994C7.78784 35.5938 7.81908 35.7964 7.90032 36.003C8.02146 36.3342 8.25157 36.6054 8.54647 36.7646H8.55272C8.84239 36.9299 9.17817 36.9746 9.49632 36.8901C9.83377 36.7956 10.0712 36.5931 10.2187 36.273V36.2798C10.3649 35.9652 10.3762 35.6316 10.2475 35.2859H10.2412C10.1178 34.9579 9.88811 34.6896 9.59506 34.5311C9.36991 34.4022 9.11538 34.3456 8.86142 34.3677C8.54147 33.8451 8.42399 33.3685 8.50648 32.9337C8.74394 31.9344 10.0737 31.1269 12.4846 30.5233C13.422 33.0349 14.6168 35.344 16.0665 37.4505L16.2003 37.6463L25.5713 33.4603L25.2339 33.1268C23.3642 31.3038 21.7744 29.389 20.4696 27.3811C21.257 26.9719 21.9319 26.4628 22.4843 25.8525C22.8167 26.1604 23.1717 26.4196 23.5379 26.6222L24.0565 26.9112L23.9516 26.2819C23.7202 25.0847 23.8152 23.8407 24.2253 22.7008C24.5802 22.7319 24.9377 22.6441 25.2914 22.424C25.7288 22.1472 26.0375 21.7488 26.2062 21.2357V21.2424C26.3874 20.7158 26.3687 20.2162 26.165 19.7517H26.1712C25.9563 19.2656 25.6176 18.959 25.1464 18.8267H25.1576ZM7.63161 30.1101C8.73769 28.9326 10.1762 27.9712 11.9409 27.2204L11.9934 27.1934L12.0397 27.1745L12.0922 27.0664C12.2896 26.6505 12.4471 26.2738 12.5583 25.9322L15.3204 24.5913C16.0953 24.7992 16.8352 24.9059 17.5326 24.9248H17.5388C18.9136 24.9518 20.1072 24.6223 21.1632 23.9364C21.472 24.4657 21.8044 24.9302 22.1593 25.3272C21.5594 26.0024 20.8146 26.5425 19.9222 26.9571L19.6022 27.1137L19.7997 27.4216C21.087 29.4471 22.6593 31.4051 24.5177 33.255L16.4102 36.8739C14.9873 34.7643 13.8225 32.465 12.9445 30.0331L12.8508 29.782L12.6058 29.8387C9.82752 30.5004 8.28401 31.4429 7.97531 32.6582C7.43414 32.6393 6.89797 32.7027 6.37931 32.8526C6.30932 31.9844 6.72925 31.0661 7.63161 30.1034V30.1101ZM8.50648 34.8984L8.61146 35.0604L8.81518 35.0159C8.99015 34.9659 9.16512 34.9889 9.34509 35.0915H9.33884C9.5117 35.1791 9.64714 35.3346 9.71754 35.5263C9.78003 35.6883 9.77627 35.8477 9.71128 35.9989H9.70504C9.64255 36.1434 9.52507 36.2379 9.36759 36.269C9.18762 36.3136 9.00514 36.2879 8.82642 36.1934C8.6477 36.0988 8.52397 35.9476 8.45398 35.7613V35.7545H8.44773C8.39667 35.636 8.3882 35.5013 8.42399 35.3764L8.47648 35.1685L8.34275 35.0429C7.6841 34.4082 6.91547 33.86 6.03686 33.4063L6.43305 33.224C6.91672 33.0795 7.4054 33.0106 7.91282 33.0214C7.85408 33.594 8.0528 34.2097 8.50648 34.8849V34.8984ZM24.079 19.5991C24.3877 19.4046 24.6964 19.3533 25.0114 19.437C25.1525 19.4734 25.2838 19.5447 25.395 19.6452C25.5063 19.7457 25.5944 19.8728 25.6525 20.0163V20.0231C25.7863 20.331 25.7925 20.6645 25.67 21.0223C25.5549 21.3852 25.3206 21.6898 25.0114 21.8785C24.7139 22.0607 24.4177 22.1175 24.114 22.0486L23.8766 21.9919L23.7841 22.2241C23.3342 23.3314 23.1779 24.5022 23.3004 25.735C23.0442 25.5905 22.7418 25.3637 22.3918 25.0558C22.0594 24.6777 21.7507 24.2375 21.4545 23.7325C22.1643 23.2099 22.7992 22.5118 23.3592 21.6435L23.4466 21.5179L23.3941 21.3559C23.3004 21.0669 23.3067 20.7644 23.4191 20.4511V20.4444C23.535 20.0837 23.7718 19.7831 24.0828 19.6018" fill="black"/>
<path d="M17.5388 24.9302H17.5326C16.7857 24.9065 16.0435 24.7947 15.3192 24.5967L12.5571 25.9376C12.4255 26.3261 12.2698 26.7046 12.0909 27.0705L12.0384 27.1785L11.9922 27.1974C12.872 28.6558 13.8919 30.0034 15.038 31.243C16.2553 32.5529 17.7463 33.8492 19.5123 35.1253C18.185 31.4253 17.5263 28.0265 17.5388 24.9302Z" fill="#543E3C"/>
<path d="M32.169 10.3952L31.8603 10.1251C30.1231 11.5659 28.6921 12.3532 27.5685 12.4977C27.5747 13.4726 28.0222 14.1275 28.9133 14.4692C29.3732 13.3551 30.4918 12.1101 32.2803 10.7422L32.1678 10.4087" fill="#94625E"/>
<path d="M27.5697 12.4842L26.3449 12.5598C25.8738 12.6165 25.4126 12.7758 24.9527 13.0324C23.4554 13.8885 22.3556 14.9013 21.6619 16.0707C20.987 17.2103 20.8695 18.1772 21.312 18.9712C21.8769 19.6639 22.768 19.8327 23.9791 19.4749C25.2251 19.1103 26.4487 18.2798 27.641 16.9902C28.0084 16.5932 28.2871 16.18 28.4784 15.7007L28.9095 14.4543C28.0184 14.114 27.5697 13.4605 27.5647 12.4828" fill="#F26D7D"/>
<path d="M31.5404 11.069V10.6166C29.9444 12.183 28.7158 13.1647 27.8485 13.5604L28.8033 14.5299C29.2982 13.6171 30.2068 12.4666 31.5529 11.069" fill="#74504D"/>
<path d="M22.508 18.6579C22.933 19.1805 23.6079 19.3128 24.529 19.0414C25.4726 18.7646 26.2537 18.3257 26.8661 17.7181C27.4785 17.1104 27.8447 16.6783 27.9722 16.4217L28.4271 15.4765C28.4896 15.2064 28.6246 14.8783 28.8171 14.5259L27.8622 13.5563C27.6297 13.6644 27.4248 13.7265 27.2448 13.7454C26.8249 13.7643 26.4874 13.8264 26.2375 13.9398C25.9875 14.0533 25.5151 14.3935 24.8227 14.9593C24.1383 15.5117 23.494 16.1198 22.8955 16.7782C22.3081 17.4264 22.1793 18.0557 22.5105 18.6552" fill="#A3555C"/>
<path d="M33.7063 9.98604C33.7063 9.65251 33.5938 9.36489 33.3738 9.12183C33.2707 9.00815 33.1473 8.9183 33.0111 8.85772C32.8749 8.79713 32.7288 8.76708 32.5815 8.76939C32.2728 8.76939 32.0066 8.89092 31.7841 9.12048C31.5616 9.35003 31.4591 9.64981 31.4591 9.98469C31.457 10.1438 31.4848 10.3018 31.5409 10.4489C31.597 10.5961 31.6801 10.7294 31.7853 10.8408C32.0066 11.0798 32.2753 11.2 32.5827 11.2C32.8902 11.2 33.1576 11.0785 33.3751 10.8408C33.5926 10.6031 33.7075 10.3182 33.7075 9.98469" fill="#F26D7D"/>
<path d="M25.0526 14.8513L24.5652 15.0971L22.753 16.8795L23.2779 17.1185L23.7154 18.1313L24.2978 16.9916L25.7538 16.8971L25.0539 16.0464L25.0526 14.8513Z" fill="#FFD064"/>
<path d="M24.5627 15.0957L24.0915 15.3226L23.2767 14.8189L23.2179 16.0774L22.518 16.7701L22.7505 16.8782L24.5627 15.0957Z" fill="white"/>
<path d="M31.2567 14.006C31.2742 13.8169 31.2742 13.6279 31.2629 13.4456H30.5468C30.553 13.5401 30.5468 13.6401 30.5405 13.7346C30.5055 14.3328 30.2906 14.7743 29.8881 15.0687C29.4857 15.3631 29.0133 15.4198 28.4959 15.2443C27.9784 15.0687 27.5335 14.7095 27.1911 14.1613C26.8486 13.613 26.6911 13.0473 26.7311 12.4504C26.7711 11.8536 26.9811 11.4187 27.3935 11.123C27.806 10.8273 28.2684 10.7719 28.7733 10.9407C28.8021 10.9475 28.8258 10.9596 28.8545 10.9718V10.2048C28.1272 9.97254 27.486 10.0671 26.9211 10.4749C26.3562 10.8827 26.0412 11.5065 25.9712 12.3181C25.9013 13.1296 26.105 13.9169 26.5774 14.665C27.0498 15.413 27.6435 15.8938 28.3709 16.1179C29.0983 16.3421 29.7507 16.2624 30.3156 15.8478C30.8805 15.4333 31.1904 14.8081 31.2529 13.9911" fill="#9DDFF9"/>
<path d="M19.9084 14.6744C19.606 13.2566 18.8136 12.1493 17.5338 11.3391C16.619 10.7584 15.1804 10.2183 13.2295 9.70922L10.7349 9.07997L8.21277 8.32378C6.32306 7.65941 4.8233 6.7952 3.71097 5.73248C4.04342 7.24891 4.06592 8.93548 3.76971 10.7922C3.60724 11.8428 3.2223 13.4348 2.61115 15.5805C2.05748 17.5317 1.73628 18.9779 1.6388 19.9218C1.49257 21.4072 1.69754 22.6589 2.2562 23.6717C2.68113 24.4454 3.49101 25.1071 4.67332 25.6472C5.74441 26.1442 6.99796 26.4899 8.42274 26.687C9.71588 26.8797 11.0255 26.9073 12.3246 26.7694C13.5994 26.6249 14.5493 26.3292 15.1779 25.8755C16.8027 24.7047 18.0837 23.0438 19.0336 20.8981C20.0184 18.6566 20.3034 16.5824 19.9084 14.6744Z" fill="#935A8C"/>
<path d="M19.281 16.8079C19.1473 15.2915 18.5312 14.0587 17.4188 13.0945C16.3065 12.1304 15.2642 11.5956 14.2793 11.5011C13.2945 11.4066 12.2696 11.2311 11.1986 10.9853C10.1275 10.7395 9.11888 10.4182 8.18152 10.0225C7.24417 9.62685 6.18434 8.97194 5.00202 8.07126C5.25198 9.37434 5.20574 10.8151 4.86829 12.3883C4.68082 13.2755 4.27463 14.6163 3.63973 16.4217C3.06857 18.0638 2.71988 19.2845 2.5974 20.0839C2.40993 21.3424 2.55115 22.4199 3.02233 23.3058C3.38977 23.9809 3.97218 24.6291 4.76956 25.2435C5.56693 25.8579 6.63927 26.2562 7.97906 26.4385C9.31885 26.6208 10.6061 26.6951 11.8535 26.6708C13.1008 26.6465 14.2006 26.2792 15.1967 25.5946C16.1928 24.91 17.1589 23.6501 18.0962 21.819C19.0336 19.988 19.4298 18.3217 19.296 16.8039" fill="#674654"/>
<path d="M15.6929 11.8049C15.1663 11.6784 14.6203 11.68 14.0943 11.8096C13.5684 11.9392 13.0758 12.1936 12.6521 12.5544C11.6322 13.3646 11.0798 14.5866 10.9923 16.1868C9.19262 15.5764 7.62036 15.4819 6.27432 15.9167C5.06826 16.3002 4.28213 16.997 3.90969 18.0124C3.53725 19.0279 3.70597 20.0379 4.40461 21.0507C5.17949 22.1769 6.46054 23.0397 8.25401 23.6244C9.05001 22.9122 9.89063 22.2602 10.7699 21.6732C11.5385 21.1641 12.3321 20.7037 13.152 20.3013C13.9933 19.8835 14.8592 19.5263 15.7441 19.2318L17.8113 18.6512C18.5237 16.7566 18.6149 15.1592 18.0912 13.8683C17.6313 12.7475 16.8327 12.0629 15.6916 11.8157" fill="#FFCA6D"/>
<path d="M17.8125 18.6376L15.7453 19.2183L16.6427 21.3248C17.0151 20.6199 17.3926 19.726 17.8138 18.6241M10.7599 21.6597C9.88063 22.2467 9.04001 22.8987 8.24402 23.6109C9.71879 24.0971 10.9586 24.3536 11.9659 24.3779C12.1097 24.3825 12.2535 24.3802 12.3971 24.3712L10.7724 21.6705" fill="white"/>
<path d="M16.3465 21.8487L16.644 21.3262L15.7466 19.2196C14.8617 19.5141 13.9958 19.8714 13.1545 20.2891L14.913 23.5164C15.4316 23.1194 15.9103 22.5604 16.3465 21.8487Z" fill="white"/>
<path d="M14.5343 23.7743C14.6652 23.6966 14.7916 23.6105 14.913 23.5164L13.1545 20.2891C12.3334 20.6915 11.5422 21.1506 10.7724 21.6611L12.4096 24.3752C13.2245 24.3374 13.9344 24.1362 14.5343 23.777" fill="white"/>
<path d="M7.34041 18.7268C7.25339 18.7999 7.18295 18.8934 7.13443 19.0004C7.08592 19.1073 7.06062 19.2248 7.06045 19.3439C7.06064 19.462 7.08598 19.5785 7.13453 19.6843C7.18308 19.7902 7.25352 19.8825 7.34041 19.9542C7.53375 20.126 7.77754 20.2175 8.0278 20.2121C8.29526 20.2121 8.52272 20.1244 8.70894 19.9556C8.89516 19.7868 8.9939 19.5842 8.9939 19.3452C8.99409 19.2255 8.96844 19.1074 8.91897 19.0003C8.8695 18.8931 8.79759 18.8 8.70894 18.7281C8.52147 18.5661 8.29651 18.4824 8.0278 18.4824C7.77926 18.4759 7.53633 18.5628 7.34041 18.7281" fill="#6F4D4A"/>
<path d="M15.6929 16.1476C15.8266 15.9019 15.8741 15.6507 15.8328 15.386C15.7916 15.1214 15.6754 14.9458 15.4829 14.8256C15.2904 14.7055 15.0829 14.6879 14.8542 14.7757C14.6255 14.8635 14.4418 15.0404 14.3068 15.2861C14.1718 15.5319 14.1318 15.7898 14.1731 16.0477C14.2143 16.3056 14.3306 16.5014 14.523 16.6202C14.6178 16.6792 14.724 16.7133 14.8332 16.7198C14.9424 16.7264 15.0514 16.7052 15.1517 16.6581C15.3813 16.5613 15.5726 16.3813 15.6929 16.149" fill="#6F4D4A"/>
<path d="M33.1064 9.67816C32.9777 9.54583 32.8264 9.47561 32.6465 9.47561C32.4665 9.47561 32.314 9.54313 32.1865 9.67816C32.1246 9.74229 32.0756 9.8195 32.0424 9.90499C32.0093 9.99048 31.9929 10.0824 31.9941 10.1751C31.9927 10.2688 32.0091 10.3618 32.0422 10.4484C32.0753 10.535 32.1244 10.6134 32.1865 10.6788C32.2459 10.7457 32.3173 10.7987 32.3965 10.8344C32.4756 10.8702 32.5607 10.888 32.6465 10.8867C32.7322 10.888 32.8173 10.8702 32.8964 10.8344C32.9756 10.7987 33.047 10.7457 33.1064 10.6788C33.1685 10.6134 33.2176 10.535 33.2507 10.4484C33.2838 10.3618 33.3002 10.2688 33.2989 10.1751C33.3001 10.0824 33.2836 9.99048 33.2505 9.90499C33.2174 9.8195 33.1683 9.74229 33.1064 9.67816Z" fill="#A3555C"/>
<path d="M18.1275 69.1375C16.509 67.7332 14.8605 66.7029 13.1782 66.048L12.8283 69.7614L18.8561 74.9534L22.3806 73.884C21.0683 72.0408 19.6485 70.4609 18.1287 69.1389" fill="#F26D7D"/>
<path d="M18.8549 74.9521L17.5051 73.7881C16.9864 74.5375 16.4277 75.0034 15.8216 75.16C15.528 75.2469 15.2195 75.2568 14.9217 75.1889C14.6239 75.1211 14.3454 74.9774 14.1093 74.7698C13.5557 74.3242 13.317 73.7192 13.3807 72.9576C13.4332 72.2906 13.7182 71.6303 14.2368 70.9753L12.827 69.76C11.9022 70.924 11.3948 72.0259 11.3073 73.0765C11.2136 74.2405 11.6447 75.2775 12.5946 76.1849C13.6019 77.1477 14.6968 77.5123 15.8791 77.2787C17.0614 77.0451 18.0575 76.2714 18.8536 74.9507" fill="#9DDFF9"/>
<path d="M14.2368 70.9753C13.7182 71.6303 13.4332 72.2906 13.3807 72.9576C13.3182 73.7192 13.5557 74.3215 14.1093 74.7698C14.3454 74.9774 14.6239 75.1211 14.9217 75.1889C15.2195 75.2568 15.528 75.2469 15.8216 75.16C16.4277 74.9899 16.9864 74.5389 17.5051 73.7881L14.2368 70.9753Z" fill="#716F75"/>
<path d="M18.4249 74.4876L14.6105 71.2022L13.4457 70.1948C12.6958 71.1576 12.2709 72.0718 12.1934 72.9387C12.1184 73.9015 12.4684 74.7576 13.2532 75.5044C14.0856 76.297 14.9905 76.5981 15.9678 76.4037C16.9452 76.2092 17.7675 75.5732 18.4262 74.4862" fill="#86ADC0"/>
<path d="M18.0987 74.3552L21.0395 73.3803C19.2648 70.7431 17.0026 68.7176 14.2531 67.3011L13.8156 70.3839L18.0962 74.3539" fill="#C25E69"/>
<path d="M12.6696 73.9771C12.7345 73.9109 12.7861 73.8309 12.8212 73.7421C12.8562 73.6534 12.874 73.5578 12.8733 73.4613C12.8741 73.3638 12.8564 73.2671 12.8214 73.1773C12.7863 73.0874 12.7347 73.0062 12.6696 72.9387C12.5358 72.7942 12.3784 72.7254 12.1921 72.7254C12.0059 72.7254 11.8422 72.7929 11.7085 72.9387C11.5747 73.0846 11.511 73.2601 11.511 73.4613C11.511 73.6625 11.5735 73.8326 11.7085 73.9771C11.771 74.0475 11.8461 74.1033 11.9293 74.1412C12.0124 74.179 12.1019 74.1981 12.1921 74.1972C12.2815 74.198 12.3699 74.1788 12.4521 74.1409C12.5342 74.103 12.6083 74.0473 12.6696 73.9771Z" fill="#9DDFF9"/>
<path d="M14.2368 70.9753C13.7182 71.6303 13.4332 72.2906 13.3807 72.9576C13.3182 73.7192 13.5557 74.3215 14.1093 74.7698C14.3454 74.9774 14.6239 75.1211 14.9217 75.1889C15.2195 75.2568 15.528 75.2469 15.8216 75.16C16.4277 74.9899 16.9864 74.5389 17.5051 73.7881L14.2368 70.9753Z" fill="#685F63"/>
<path d="M16.089 63.6579C16.0303 63.9914 16.0828 64.333 16.2515 64.6274C16.4202 64.9218 16.6515 65.15 16.9514 65.2567C17.0854 65.3118 17.2291 65.3339 17.372 65.3214C17.5148 65.3089 17.6533 65.262 17.7773 65.1842C17.9013 65.1064 18.0076 64.9997 18.0885 64.8718C18.1694 64.744 18.2229 64.5982 18.245 64.4451C18.3049 64.1116 18.245 63.7699 18.0762 63.4756C17.9075 63.1812 17.68 62.953 17.3838 62.8463C17.0876 62.7396 16.8089 62.7585 16.5515 62.9138C16.294 63.0691 16.144 63.323 16.0915 63.6565M21.0408 64.0792C20.9855 64.2282 20.9621 64.3888 20.9723 64.5489C20.9824 64.7091 21.0259 64.8647 21.0995 65.0041C21.2457 65.3188 21.4782 65.5443 21.7994 65.6834C22.1206 65.8224 22.4343 65.8279 22.743 65.7104C22.8854 65.6626 23.016 65.5805 23.1249 65.4703C23.2338 65.3602 23.3181 65.2248 23.3717 65.0744C23.427 64.9242 23.4505 64.7625 23.4403 64.6013C23.4301 64.44 23.3866 64.2833 23.3129 64.1426C23.1671 63.8282 22.9146 63.5868 22.608 63.4688C22.3106 63.3302 21.9754 63.3191 21.6707 63.4378C21.362 63.5566 21.1507 63.7713 21.0408 64.0792ZM23.8078 69.0119C23.5329 69.1065 23.3417 69.282 23.2254 69.5156C23.1696 69.6277 23.1404 69.753 23.1404 69.8802C23.1404 70.0075 23.1696 70.1327 23.2254 70.2448C23.3408 70.501 23.5431 70.6993 23.7903 70.7984C24.046 70.913 24.3314 70.924 24.594 70.8295C24.8689 70.735 25.0539 70.5783 25.1651 70.3393C25.2227 70.2258 25.2538 70.0989 25.2558 69.9695C25.2577 69.8401 25.2305 69.7121 25.1764 69.5966C25.0587 69.345 24.8567 69.1514 24.6115 69.0552C24.357 68.9374 24.0721 68.9229 23.8078 69.0119Z" fill="#716F75"/>
<path d="M34.5337 23.4448C33.0839 23.1883 31.4991 23.3881 29.7757 24.0552C28.0522 24.7223 26.7136 25.654 25.745 26.8504C24.7764 28.0468 24.464 29.1662 24.8077 30.2046C25.1514 31.243 26.0537 31.8925 27.5048 32.1491C28.9558 32.4057 30.5393 32.1991 32.2578 31.532C33.9762 30.8649 35.3273 29.9332 36.2946 28.7449C37.267 27.5296 37.5757 26.4291 37.232 25.3907C36.8883 24.3523 35.9859 23.7028 34.5349 23.4462" fill="#C6996D"/>
<path d="M31.5816 30.6583C33.1139 30.1614 34.3362 29.443 35.2561 28.5194C36.1759 27.5958 36.5146 26.7194 36.2871 25.9079C36.0597 25.0963 35.3248 24.567 34.0912 24.3469C32.8577 24.1268 31.4641 24.2658 29.9331 24.7628C28.4021 25.2597 27.1711 25.9781 26.2587 26.9017C25.3463 27.8253 25.0001 28.6949 25.2276 29.5133C25.4551 30.3316 26.19 30.8474 27.4235 31.0742C28.6571 31.3011 30.0506 31.1553 31.5816 30.6583Z" fill="#8F6C5E"/>
<path d="M75.4785 40.7454L75.4035 40.6643C72.8414 37.6126 70.1269 35.0577 67.2548 32.9944L66.8874 32.7244L66.7074 33.7641C63.5875 32.1872 60.3865 30.8048 57.1201 29.624H57.1076C57.0901 29.6172 57.0664 29.6105 57.0489 29.6105C51.731 28.2642 46.4318 27.4202 41.1264 27.0854L40.8239 27.0664L40.7014 33.5035C40.7014 33.5224 40.7014 33.5346 40.7077 33.5535L41.4826 39.6138L43.3235 40.8466L41.0051 40.8142L35.2211 27.743L28.0509 29.0082L27.1011 33.6966L24.9289 29.7631C24.8939 29.6956 24.8414 29.6496 24.7789 29.624C24.7164 29.5983 24.6452 29.597 24.5815 29.624C22.2818 30.5368 20.0097 31.6184 17.7675 32.8837L17.75 32.8904C16.0315 33.86 14.3318 34.916 12.6483 36.1002V36.1069L12.6421 36.1137C9.66754 38.1797 6.743 40.5698 3.8772 43.2813L3.78971 43.3623L3.77721 43.4946C3.44476 48.5098 4.09716 53.5249 5.72191 58.5401C5.73941 58.5847 5.76315 58.6279 5.80315 58.6657C5.84314 58.7035 5.87813 58.7224 5.92563 58.7413L13.2595 60.7371L16.0553 57.3829C16.0842 57.3405 16.1077 57.2942 16.1253 57.2451C16.1378 57.1952 16.1378 57.1438 16.1253 57.0939L15.4729 54.3757L19.7535 57.1952L24.0528 55.9799L28.2059 54.8159L33.3026 53.9476C33.3595 53.9372 33.4122 53.9085 33.4538 53.8652C33.4951 53.8207 33.5238 53.7707 33.5413 53.714L35.1486 46.9866L36.7321 52.5635L40.8902 51.4562V52.0477L52.4759 52.6891L61.3745 54.5255C61.392 54.5323 61.4157 54.5323 61.4332 54.539L64.8352 55.2372L65.7975 54.0043L66.2637 59.2652L69.5719 59.0006C69.5894 59.0006 69.6132 58.9938 69.6344 58.987L74.0137 57.5692L72.8427 49.5401L74.7474 47.8981C74.795 47.8559 74.8295 47.7988 74.8461 47.7347C75.371 45.5255 75.586 43.2286 75.4923 40.8439L75.4785 40.7454ZM74.2912 47.4916L74.1225 47.6361L72.7252 48.8514L72.4002 46.6679L71.7591 46.2844L72.2303 49.4685V49.4955L73.3489 57.1519L69.6869 58.3348L69.4832 58.4024L69.337 58.4159L66.7799 58.6184L66.3074 53.3575L69.0395 49.8709L69.0645 49.8399C69.077 49.821 69.0895 49.8088 69.0995 49.7899L68.5458 49.5252L68.3884 49.7332L64.5965 54.5782L61.9119 54.0381L64.6315 48.8906C64.644 48.8595 64.6565 48.8271 64.6602 48.7961V48.7893L64.6952 48.607L65.4951 44.0699C65.5013 44.0564 65.5013 44.0429 65.5076 44.0321C65.5138 44.0051 65.5138 43.9821 65.5138 43.9565L67.301 33.806C69.9756 35.7775 72.5077 38.1811 74.9073 41.0235C74.9823 43.207 74.7911 45.3149 74.3325 47.3539L74.2975 47.5159L74.2912 47.4916ZM24.5577 30.3046L24.7952 30.7448L26.9198 34.5959L23.9141 49.5347C23.9078 49.5793 23.9078 49.6292 23.9203 49.6792C23.9327 49.7245 23.9526 49.7671 23.9791 49.8048L24.0315 49.8682L27.6022 54.3419L24.0278 55.3411L19.601 51.3077L19.6072 51.4333C19.61 51.4742 19.6053 51.5153 19.5933 51.5543C19.5812 51.5932 19.5622 51.6292 19.5373 51.6601C19.4848 51.7276 19.421 51.7682 19.3398 51.7736C19.3019 51.7766 19.2638 51.7714 19.2278 51.7585C19.1918 51.7455 19.1585 51.7249 19.1298 51.6979L19.1586 51.729L23.3404 55.5369L19.8347 56.5186L15.1354 53.4291L14.978 53.321L14.693 53.132C14.6868 53.1009 14.6755 53.0685 14.668 53.0375L14.4006 51.6331L14.3943 51.6196C14.3881 51.5926 14.3881 51.5886 14.3881 51.5886C14.0631 49.8466 13.8006 48.1209 13.5957 46.4168C13.1932 43.0679 13.0245 39.7785 13.0958 36.5431C14.593 35.5033 16.1015 34.5487 17.6325 33.6736L17.8425 39.1425L18.4249 38.9035L18.2037 33.3671C20.2387 32.223 22.3374 31.2164 24.4877 30.3532C24.5127 30.3397 24.5402 30.3262 24.569 30.3154L24.5577 30.3046ZM4.34087 43.6648C7.01046 41.1343 9.72878 38.9143 12.4971 36.9577C12.4614 40.1256 12.6326 43.2924 13.0095 46.4343C13.0158 46.4532 13.0158 46.4789 13.022 46.5018L13.0395 46.6396C13.0458 46.703 13.052 46.7719 13.0645 46.8421C13.2411 48.271 13.4565 49.694 13.7107 51.1092L9.83627 48.9622L9.51132 48.7799L9.53631 48.7934C9.56506 48.8204 9.59505 48.8501 9.61755 48.8879C9.63516 48.9208 9.64703 48.957 9.65255 48.9946C9.66504 49.0621 9.65879 49.1323 9.62755 49.1971C9.6213 49.2106 9.61005 49.2241 9.60255 49.2349C9.55631 49.3024 9.49007 49.3429 9.41508 49.3605H9.41008C9.33509 49.374 9.26386 49.3538 9.20012 49.3105L9.17512 49.2916C9.19262 49.3105 9.21011 49.3227 9.22761 49.3362L9.61255 49.5496L13.8531 51.9032L14.1443 53.4021C14.1506 53.4466 14.1693 53.4831 14.1968 53.5155C14.2143 53.5465 14.2431 53.579 14.2781 53.6033L14.7442 53.9057L15.4941 57.0898L13.0358 60.0336L6.19183 58.1701C6.17934 58.139 6.16684 58.1026 6.16309 58.0702C4.64333 53.2684 4.03092 48.4693 4.32838 43.6661L4.34087 43.6648ZM32.7739 39.0466L32.494 39.9716L34.7774 45.9806L33.0064 53.367L32.9189 53.3805L28.2421 54.1799L24.5152 49.5104L24.5565 49.3078L27.5148 34.5959L28.5346 29.5619L34.8886 28.4411L40.5327 41.1964L40.7539 45.4121L40.7789 45.7956L40.8789 47.6834V50.8162L37.1295 51.8154L35.761 46.9569L35.7547 46.9434L35.7022 46.7814L35.3773 45.8361L35.371 45.8294L35.3648 45.8105L32.7739 39.0466ZM41.3651 34.1071L41.2901 33.54L41.2839 33.49L41.3963 27.7322C46.5043 28.0724 51.6072 28.884 56.7064 30.1628L57.2814 30.3451C60.3859 31.4793 63.4904 32.8297 66.5949 34.3961L64.0953 48.5922L63.9728 48.819L61.2932 53.8828L53.0033 52.18L56.1428 47.863C56.1778 47.813 56.1953 47.755 56.2015 47.6928L56.2303 47.2337L56.2553 46.8502L56.5927 41.4327C56.5984 41.3877 56.5924 41.3418 56.5752 41.3003C56.5577 41.2558 56.5402 41.2247 56.5127 41.1923L56.4952 41.1653L54.9867 39.472L56.7802 35.3886L56.4427 35.3008H56.4365L54.7305 39.183L54.4555 39.7812L56.0028 41.5394L55.6304 47.4916L55.6241 47.5592L55.4029 47.867L52.3409 52.0774L41.4613 51.4738V47.6928L41.4551 47.5038L41.1301 41.4678L49.2139 41.5866L48.6077 40.952L44.4546 40.8885L42.0262 39.2586L41.3676 34.1301" fill="black"/>
<path d="M69.0383 49.8574L68.7183 50.2666L69.3357 58.4037L69.482 58.3902L69.6857 58.3227L69.0395 49.8588" fill="white"/>
<path d="M69.3345 58.4024L68.7171 50.2652L66.3049 53.344L66.7774 58.6049L69.3345 58.4024Z" fill="#543E3C"/>
<path d="M68.3846 49.7183L64.5877 48.9446L61.9081 54.0084L64.5927 54.5485L65.775 53.0321L65.7813 53.0253L68.3846 49.7035M72.3965 46.6544L72.7215 48.8379L74.1187 47.6226L72.394 46.6409" fill="#76747A"/>
<path d="M74.1225 47.6361L74.2912 47.4916L74.325 47.3296L72.1253 46.0603L71.6829 45.8213L71.7578 46.2736L72.399 46.6571L74.1237 47.6388M64.6565 48.7691C64.6502 48.8001 64.639 48.8325 64.6277 48.8636L64.5877 48.9446L68.3846 49.7183L68.5408 49.5104L68.5346 49.3659L64.6902 48.5787L64.6552 48.761V48.7677" fill="white"/>
<path d="M72.2053 43.1868V42.4373L68.1759 39.5138L68.5434 49.5131L69.097 49.7778L69.132 49.6076L68.8071 40.7291L72.209 43.1895" fill="#543E3C"/>
<path d="M72.2053 42.4373V43.1868L68.8033 40.7264L69.1283 49.5928L69.0933 49.7751C69.0808 49.794 69.0683 49.8061 69.0583 49.825L69.0333 49.8561L69.6794 58.32L73.3414 57.1371L72.2228 49.4402L71.7516 46.2561L71.6766 45.8037L72.119 46.0427L74.3187 47.312C74.7786 45.2865 74.9711 43.1665 74.8936 40.9817C72.494 38.1379 69.9606 35.7329 67.2873 33.7641L67.2061 34.2367L67.1998 34.2637L65.5001 43.9186C65.5001 43.9456 65.5001 43.9686 65.4938 43.9943C65.4876 44.0078 65.4876 44.0213 65.4813 44.0321L64.6815 48.5692L68.5259 49.3565L68.1634 39.5017L72.194 42.4279" fill="#9DDFF9"/>
<path d="M24.7952 30.7448L24.5577 30.3046L24.4765 30.3437C24.109 35.2724 24.1615 40.4942 24.6265 46.0184L24.8764 44.7599C24.514 39.8447 24.4865 35.1752 24.7952 30.7448Z" fill="#D8F5FC"/>
<path d="M26.9223 34.5986L24.7977 30.7475C24.489 35.1766 24.5177 39.8487 24.8789 44.7613L26.9223 34.5986Z" fill="#543E3C"/>
<path d="M27.6035 54.3432L24.0328 49.8709L19.7922 51.4886L24.0266 55.3465L27.601 54.3473" fill="#76747A"/>
<path d="M14.6905 53.136L14.9755 53.3251L19.1573 51.7317L19.1286 51.7006C19.0873 51.6628 19.0586 51.6196 19.0411 51.5683L19.0236 51.4927V51.4859L19.0173 51.3779L14.668 53.0375C14.6755 53.0685 14.6868 53.1009 14.693 53.132" fill="white"/>
<path d="M15.1392 53.4318L19.8335 56.5213L23.3392 55.5396L19.1573 51.7317L14.9755 53.3251L15.1329 53.4331L15.1392 53.4318Z" fill="#76747A"/>
<path d="M19.0186 43.9294L18.4474 44.1685L19.0186 51.3793L19.0248 51.4873V51.494L19.0423 51.5697C19.0598 51.6196 19.0886 51.6642 19.1298 51.702C19.1585 51.729 19.1918 51.7495 19.2278 51.7625C19.2638 51.7755 19.3019 51.7806 19.3398 51.7776C19.421 51.7709 19.4848 51.733 19.5373 51.6642C19.5622 51.6332 19.5813 51.5973 19.5933 51.5583C19.6053 51.5194 19.61 51.4783 19.6072 51.4373L19.601 51.3117L19.5885 51.1605L19.0173 43.9308" fill="#543E3C"/>
<path d="M23.9228 49.6819C23.9103 49.6319 23.9103 49.582 23.9166 49.5374L23.9228 49.5063L19.5897 51.1619L19.6022 51.3131L19.7947 51.4886L24.0353 49.8709L23.9828 49.8075C23.9578 49.7764 23.9416 49.74 23.9303 49.7062" fill="white"/>
<path d="M18.4124 38.9062L17.83 39.1452L17.6201 33.6763L13.0833 36.5458C13.0245 39.7799 13.1957 43.072 13.5832 46.4195L14.3756 51.5913C14.3818 51.6102 14.3818 51.6183 14.3818 51.6223L14.3881 51.6358L14.6555 53.0402L19.0048 51.3793L18.4337 44.1685L19.0048 43.9294L19.576 51.1591L23.9091 49.5036L24.614 46.0171C24.1478 40.4915 24.0953 35.2684 24.464 30.3424C22.3136 31.2056 20.2149 32.2122 18.18 33.3563L18.4012 38.8927" fill="#9DDFF9"/>
<path d="M13.0595 46.8421C13.047 46.7746 13.042 46.7044 13.0345 46.6396L13.017 46.5018C13.0108 46.4748 13.0108 46.4519 13.0045 46.4343L9.47507 48.7569L9.50382 48.7839L9.82877 48.9662L13.0558 46.8462" fill="white"/>
<path d="M13.7069 51.1092L13.0595 46.8421L9.83377 48.9622L13.7069 51.1092Z" fill="#76747A"/>
<path d="M12.4971 36.9577C9.73003 38.9156 6.99796 41.1491 4.34337 43.6661C4.04592 48.4679 4.65833 53.267 6.17809 58.0702L10.11 55.194L9.23011 49.3335C9.21261 49.32 9.19512 49.3065 9.17762 49.2889L6.16559 47.0298L9.55506 44.6316L9.61755 45.3243L7.20543 47.0487L9.47632 48.7542L13.0058 46.4316C12.6271 43.2219 12.4521 40.0634 12.5058 36.955" fill="#9DDFF9"/>
<path d="M9.61255 48.8879C9.58756 48.8501 9.56006 48.8204 9.53131 48.7934L9.50632 48.7799L9.47757 48.7528L7.20668 47.0474L9.6188 45.323L9.55631 44.6303L6.16684 47.0285L9.20136 49.3065C9.26385 49.351 9.33509 49.3699 9.41133 49.3564H9.41758C9.49257 49.3375 9.55756 49.2997 9.60505 49.2309C9.6113 49.2174 9.62255 49.2039 9.63005 49.1931C9.6588 49.1296 9.66504 49.0607 9.65504 48.9905C9.64952 48.9529 9.63766 48.9168 9.62005 48.8838" fill="#543E3C"/>
<path d="M9.61255 49.5469L9.22761 49.3335L10.1075 55.194L6.17559 58.0702C6.18184 58.1012 6.19309 58.1377 6.20433 58.1701L6.53678 58.2646L10.3924 55.4397C10.4212 55.4208 10.4387 55.3898 10.4549 55.3587C10.4674 55.3087 10.4724 55.2831 10.4674 55.2507L10.4499 55.1372L9.61255 49.5496" fill="white"/>
<path d="M14.1431 53.3994L13.8519 51.9005L9.61255 49.5469L10.4487 55.1345L15.5041 57.0858L14.7542 53.9017L14.2881 53.5992C14.2531 53.5722 14.2256 53.5425 14.2068 53.5114C14.1781 53.4804 14.1606 53.4439 14.1543 53.398" fill="#543E3C"/>
<path d="M13.047 60.0322L15.5054 57.0885L10.3224 55.4883L6.53553 58.2633L13.0345 60.0187" fill="#76747A"/>
<path d="M10.4499 55.1372L10.4674 55.2507C10.4737 55.2817 10.4687 55.3074 10.4624 55.3384C10.4374 55.3884 10.4212 55.4195 10.3924 55.4397L10.3224 55.4883L15.5054 57.0885L10.4499 55.1372Z" fill="#93CAE0"/>
<path d="M40.7777 45.7983L40.7527 45.4148L35.686 46.7868L35.7322 46.9312L35.7447 46.9623L35.7972 47.1446L40.7777 45.7983Z" fill="white"/>
<path d="M40.8764 47.6861L40.7777 45.7983L35.7972 47.1446L37.1133 51.8195L40.8627 50.8202V47.6874" fill="#76747A"/>
<path d="M32.2215 39.2667H32.2278L32.2153 39.2357C32.2153 39.2424 32.2153 39.2546 32.2215 39.2667Z" fill="black"/>
<path d="M30.6193 47.9062L30.6605 47.8792L30.6355 47.8346L30.618 47.9021" fill="#9DDFF9"/>
<path d="M32.494 39.9716L32.2565 39.3856L30.2993 47.7036L24.5452 49.3078L24.504 49.5104V49.5171L24.6327 49.6738L30.4855 48.0372C30.498 48.0304 30.5105 48.0304 30.5205 48.0237C30.5305 48.0169 30.5493 47.9967 30.5618 47.9859C30.5846 47.9641 30.6007 47.9354 30.608 47.9035L30.6255 47.836L32.484 39.9703" fill="white"/>
<path d="M30.6605 47.8792L30.6193 47.9062C30.613 47.9373 30.5943 47.9643 30.573 47.9886C30.5605 48.0021 30.548 48.0156 30.5318 48.0264C30.5155 48.0372 30.5068 48.0331 30.4968 48.0399L30.3631 48.0777L32.9202 53.3818L33.0076 53.3683L30.6605 47.8792Z" fill="#93CAE0"/>
<path d="M30.638 47.8373L30.663 47.8819L33.0076 53.3683L34.7774 45.9806L32.494 39.9716L30.6355 47.8387" fill="#543E3C"/>
<path d="M30.3643 48.075L24.6327 49.6738L28.2321 54.1812L32.9089 53.3818L30.3518 48.075" fill="#76747A"/>
<path d="M36.3934 36.5863L36.1834 35.9949L31.5304 36.9833L32.2178 39.2357L32.2303 39.2667H32.224L32.4977 39.9703L32.7727 39.025L32.289 37.4451L36.3946 36.5701" fill="#543E3C"/>
<path d="M36.1809 35.9949L36.3909 36.5863L32.2853 37.4613L32.7689 39.0412L35.361 45.8564L35.686 46.8016L40.7552 45.4148L40.534 41.1991L34.8899 28.4438L28.5358 29.5646L24.5577 49.3105L30.3118 47.7063L32.2565 39.3856L32.2215 39.2856C32.204 39.2546 32.204 39.2411 32.204 39.2357L31.5166 36.9833L36.1697 35.9949" fill="#9DDFF9"/>
<path d="M63.9766 48.8177L64.099 48.5908L64.124 48.4585L56.2553 46.8475L56.2303 47.231L63.9766 48.8177Z" fill="white"/>
<path d="M61.297 53.8841L63.9766 48.8204L56.2303 47.2337L56.2015 47.6928C56.1953 47.7563 56.1765 47.8144 56.1428 47.863L53.0033 52.18L61.297 53.8841Z" fill="#76747A"/>
<path d="M55.6241 47.5484L55.6304 47.4808H41.4551L41.4613 47.651V47.8589H55.4029L55.6241 47.5511" fill="white"/>
<path d="M52.3384 52.0652L55.4004 47.8549H41.4588V51.4603L52.3384 52.0652Z" fill="#76747A"/>
<path d="M49.3563 33.6156V34.0436L50.2475 34.1449L56.434 35.2967C56.4052 35.2468 56.3927 35.1887 56.399 35.1347L56.4165 34.9146L49.7175 33.6682L49.3551 33.6183" fill="white"/>
<path d="M50.2537 34.1436L50.2475 34.1449L49.3563 34.0436L54.453 39.7812L54.728 39.183L50.2537 34.1436Z" fill="#543E3C"/>
<path d="M42.0237 39.2343L44.4546 40.8642L48.6077 40.9277L41.3676 34.1057L42.0262 39.2343" fill="#76747A"/>
<path d="M49.3563 34.0436V33.6156L49.7188 33.6669L56.4177 34.9132L56.7089 30.1628C51.6072 28.8854 46.5043 28.0738 41.3988 27.7322L41.2864 33.49L41.2926 33.54L49.2189 41.0033L49.2126 41.5637L41.1289 41.4421L41.4538 47.4781H55.6279L56.0028 41.5394L49.3576 34.0585" fill="#9DDFF9"/>
<path d="M41.2901 33.54L41.3651 34.1071L48.6052 40.929L49.2126 41.5637L49.2189 41.0033L41.2901 33.54Z" fill="white"/>
<path d="M61.0395 37.4208V38.096L65.6013 40.0715L65.7263 39.4423L61.0558 37.4343M60.8271 42.3441V43.0193L64.8927 44.1833L65.0027 43.5622L60.8283 42.3469" fill="#543E3C"/>
<path d="M56.4902 41.1667L56.5077 41.1937C56.5365 41.2247 56.554 41.2571 56.5702 41.3017C56.5874 41.3432 56.5934 41.389 56.5877 41.434L56.2503 46.8516L64.119 48.4625L64.8764 44.159L60.8108 42.995V42.3334L64.9852 43.5487L65.5976 40.0756L61.0358 38.1V37.4384L65.7063 39.4463L66.5912 34.4123C63.4866 32.8459 60.3821 31.4928 57.2776 30.3613L56.8464 35.4331L56.484 41.1856" fill="#9DDFF9"/>
<path d="M56.4327 35.3008V35.294L50.2537 34.1436L54.728 39.183L56.4327 35.3008Z" fill="#76747A"/>
<path d="M57.2839 30.3451L56.7089 30.1628L56.4177 34.9132L56.4002 35.1334C56.394 35.1901 56.4065 35.2468 56.4352 35.2954V35.3021H56.4415L56.7789 35.3899L54.9855 39.4733L56.494 41.1667L56.8564 35.4142L57.2876 30.3424" fill="#543E3C"/>
<path d="M43.5448 28.5356L41.9663 28.4033L41.8725 33.255L42.9036 34.2246L45.8569 28.7881L43.5448 28.5356ZM38.4431 37.938L35.2336 43.8592L35.8922 45.5904C35.8984 45.6039 35.8984 45.6174 35.9047 45.6282L36.0497 46.0373L36.5746 45.8982L39.5454 40.424L38.4455 37.9394M48.2265 39.2411L49.3851 40.3294C49.4726 40.3605 49.5538 40.4105 49.635 40.4915C49.684 40.5428 49.7253 40.6021 49.7575 40.667C49.8514 40.7754 49.9071 40.9159 49.915 41.064C49.9299 41.2133 49.8895 41.3628 49.8025 41.4799V41.5677C49.7963 41.7378 49.74 41.8891 49.6275 42.0133C49.5725 42.0723 49.5068 42.1183 49.4346 42.1485C49.3623 42.1787 49.285 42.1924 49.2076 42.1889L46.6505 42.1511L44.1009 46.8448H49.0001L53.147 39.206L50.1062 35.7829L48.2365 39.237M56.1078 30.6583L53.2482 30.0034L51.436 33.3442L55.8853 34.1746V34.1557L56.1065 30.6448M6.7055 42.3307L4.90579 43.9673L4.85329 45.7497L6.7055 42.3334M28.0922 34.6931C28.0859 34.7121 28.0859 34.7242 28.0859 34.7431L26.5837 42.1943L33.5788 29.3121L29.017 30.1182L28.0922 34.6931ZM23.4279 49.027L24.0528 45.9806L23.6804 38.5538L19.7585 45.7794L20.1134 50.2976L23.4379 49.0283M14.9592 51.4684L14.953 51.4373C14.9405 51.4103 14.9405 51.3995 14.9355 51.3874L14.9592 51.4684ZM18.215 48.5989L16.5615 51.6439L18.4024 50.9458L18.215 48.5989ZM6.06685 55.545L6.48554 57.0682L9.48507 54.878L8.82643 50.4624L6.07685 55.5342M10.5137 47.3404L12.3834 46.1075L12.1959 44.2387L10.5137 47.3404ZM52.7108 46.8489H55.0854L55.3879 41.9093L52.7083 46.8489M69.7507 39.9014L70.9567 37.6801C69.9124 36.6747 68.8198 35.7295 67.6835 34.8484L66.0637 44.159C66.0512 44.186 66.0512 44.1968 66.0462 44.2157L65.3876 47.9602L67.741 43.6391L67.591 39.5476C67.5847 39.3856 67.626 39.2397 67.7247 39.1195C67.8171 38.9987 67.9484 38.9201 68.0922 38.8994C68.1628 38.8859 68.2353 38.8877 68.3052 38.9049C68.3752 38.922 68.4413 38.9542 68.4996 38.9994L69.7494 39.9122" fill="#8EBED3"/>
<path d="M72.9214 39.6691L71.9366 41.4813L72.5302 41.9134C72.5947 41.957 72.65 42.015 72.6922 42.0835C72.7344 42.1519 72.7627 42.2293 72.7752 42.3104C72.8039 42.4805 72.7752 42.6439 72.6877 42.7884L72.3628 43.311C72.3224 43.3807 72.2687 43.4404 72.2054 43.486C72.142 43.5316 72.0704 43.5622 71.9953 43.5757C71.8378 43.6067 71.6866 43.5757 71.5529 43.4811L71.053 43.1098L69.5782 45.828L69.6307 50.0141L70.2018 57.4949L72.7014 56.6888L71.6641 49.5725C71.6579 49.5455 71.6579 49.5225 71.6579 49.4969L71.1917 46.3695C71.1516 46.1335 71.134 45.8937 71.1392 45.6538C71.1403 45.5626 71.1645 45.4734 71.2092 45.3959C71.2526 45.3325 71.3108 45.2826 71.3779 45.2514C71.4479 45.2069 71.5241 45.188 71.5991 45.1947C71.6404 45.1947 71.7041 45.2082 71.7916 45.2325C71.9078 45.2595 72.1115 45.346 72.409 45.4972L72.5665 45.5917C72.6015 45.6052 72.6365 45.6228 72.6715 45.6552L73.9213 46.3844C74.2375 44.6973 74.3721 42.9763 74.3224 41.2558L72.9189 39.6705M57.2301 38.4984L57.0726 40.9965L56.8577 46.3384L63.6441 47.7293L64.1915 44.6235L60.5921 43.5595C60.5179 43.5415 60.4481 43.5064 60.3877 43.4565C60.3273 43.4066 60.2776 43.3432 60.2421 43.2705C60.1651 43.1257 60.144 42.9539 60.1834 42.7925L60.1959 42.1821C60.2133 42.1016 60.2461 42.0259 60.2922 41.9599C60.3382 41.8938 60.3965 41.8389 60.4634 41.7986C60.5971 41.7108 60.7483 41.6906 60.9058 41.7351L64.5227 42.7668L64.9227 40.4712L60.8046 38.6847C60.7296 38.6537 60.6546 38.5267 60.5546 38.3066C60.4546 38.0865 60.4446 37.9475 60.4734 37.8664L60.5021 37.2817C60.5297 37.2049 60.5713 37.1347 60.6243 37.0754C60.6773 37.016 60.7407 36.9686 60.8108 36.9361C60.9143 36.9002 61.0221 36.8811 61.1308 36.8793C61.2378 36.8727 61.345 36.8897 61.4457 36.9293L65.2489 38.5767L65.9113 34.7755L60.5708 32.3274L57.2164 38.5119M23.7953 31.8844L23.8303 31.2808C22.1137 32.0062 20.4323 32.8251 18.7924 33.7344L18.9961 38.8819C19.0003 38.9645 18.9892 39.0472 18.9635 39.1251C18.9377 39.203 18.8978 39.2746 18.8461 39.3356C18.7374 39.4679 18.5961 39.5301 18.4387 39.5382L17.8563 39.7137C17.6938 39.7204 17.5538 39.6691 17.4438 39.5517C17.3854 39.4977 17.3381 39.4312 17.305 39.3563C17.2718 39.2814 17.2535 39.1998 17.2514 39.1169L17.1014 35.2009L13.7519 41.38L14.1768 46.3384L14.5318 48.9581L23.7953 31.8844Z" fill="#8EBED3"/>
<path d="M38.0519 64.0981L39.4016 68.9498L40.3915 67.3321L42.6686 70.5054L42.7436 67.9195L45.9006 69.8505L45.8256 67.8993L50.5124 70.0139L47.5591 65.9926L50.0812 64.9933L47.5129 63.219L49.4813 61.5513L46.2781 61.5135L47.028 59.777L41.9138 60.0093L38.0469 64.1008" fill="#FDF155"/>
<path d="M32.444 53.236C32.0653 54.1488 32.1003 55.036 32.554 55.8961C33.0076 56.7563 33.7475 57.3491 34.7661 57.6651C35.7972 57.9729 36.8108 57.9216 37.8069 57.503C38.803 57.0844 39.4904 56.4201 39.8741 55.514C40.2578 54.6079 40.224 53.714 39.7691 52.8538C39.3142 51.9937 38.5755 51.3995 37.5494 51.0984C36.5234 50.7973 35.5173 50.8337 34.5212 51.2564C33.5251 51.679 32.8339 52.3366 32.4415 53.2508" fill="#9DDFF9"/>
<path d="M33.6838 53.7275C33.5454 54.0363 33.4803 54.3775 33.4945 54.7203C33.5087 55.0631 33.6017 55.3966 33.765 55.6909C34.0975 56.3255 34.6449 56.7671 35.396 57.0007C36.1459 57.2276 36.9045 57.183 37.6382 56.8751C38.3718 56.5672 38.8792 56.0825 39.1629 55.4087C39.4466 54.7348 39.4129 54.0813 39.088 53.4453C38.763 52.8093 38.2081 52.3758 37.4507 52.1422C36.7143 51.908 35.9264 51.948 35.2136 52.2556C34.4799 52.5635 33.9675 53.055 33.6813 53.741" fill="#89A9B9"/>
<path d="M36.0372 52.3745C36.1122 52.5189 36.2296 52.6135 36.3996 52.6715C36.5652 52.7215 36.7415 52.7106 36.9008 52.6405C36.9757 52.6143 37.0449 52.5718 37.104 52.5156C37.1632 52.4594 37.211 52.3907 37.2445 52.3137C37.276 52.2458 37.2909 52.1704 37.2879 52.0945C37.2848 52.0186 37.2638 51.9449 37.227 51.8802C37.152 51.7357 37.0295 51.6412 36.8596 51.5832C36.6896 51.5251 36.5271 51.5386 36.3646 51.6102C36.2021 51.6817 36.0847 51.7925 36.0209 51.9437C35.9892 52.0117 35.9741 52.0874 35.9772 52.1636C35.9803 52.2397 36.0013 52.3137 36.0384 52.3785" fill="#9DDFF9"/>
<path d="M45.5357 56.4147C43.7235 55.8799 41.995 55.7665 40.3465 56.0744C41.5638 57.0439 42.7711 58.1633 43.9634 59.4367L45.5357 56.4147Z" fill="#F26D7D"/>
<path d="M41.815 63.323C42.9024 62.3669 43.621 61.0706 43.9647 59.434C42.7711 58.1647 41.5651 57.0439 40.3478 56.0717C36.4809 52.9929 32.5027 51.4265 28.4084 51.3779C28.8395 56.0285 31.7328 60.5143 37.092 64.8448C39.0192 64.9015 40.5915 64.3992 41.8163 63.3216" fill="white"/>
<path d="M43.7772 59.4043L44.952 57.1452C43.6022 56.7482 42.3074 56.6672 41.0776 56.894C42.0299 57.6616 42.9312 58.5004 43.7747 59.4043" fill="#C25E69"/>
<path d="M28.0747 51.0525L28.1209 51.4117C28.5458 56.1378 31.4754 60.6993 36.9158 65.0987L36.9908 65.1621H37.0845C39.088 65.2256 40.7252 64.6963 42 63.5687C43.1248 62.5803 43.8697 61.2408 44.2371 59.5542L45.9781 56.2135L45.6107 56.1122C43.7985 55.5775 42.07 55.4573 40.4152 55.7408C36.5246 52.6702 32.5227 51.1092 28.4109 51.066L28.0747 51.0525ZM40.9227 56.3053C42.2562 56.1297 43.6472 56.2297 45.097 56.6132L43.8347 59.0357C42.9122 58.0668 41.94 57.1562 40.9227 56.3053ZM40.1765 56.3323L40.2765 56.4079L41.5763 57.4774C42.5262 58.2876 43.2298 58.9249 43.6785 59.3949C43.346 60.9423 42.6661 62.1698 41.6338 63.0759C40.4752 64.0832 38.9967 64.5666 37.1895 64.5342C32.099 60.3995 29.2807 56.1216 28.7383 51.6966C32.6527 51.8289 36.4671 53.3764 40.1765 56.3282" fill="black"/>
<path d="M40.9352 63.1407C41.7913 62.3912 42.3499 61.3853 42.6224 60.0822C41.7347 59.1291 40.7849 58.2459 39.7803 57.4396C36.7346 55.0171 33.6063 53.7896 30.3856 53.7531C30.7293 57.4099 33.0064 60.9396 37.217 64.3438C38.7318 64.3884 39.9716 63.9928 40.9327 63.1285" fill="#CBC4C4"/>
<path d="M41.6925 62.5803C43.4923 62.5614 44.7971 62.3102 45.5944 61.8241C43.9109 60.0052 41.4651 58.7723 38.2556 58.1107C38.5468 59.0991 39.6929 60.5818 41.6925 62.5803Z" fill="#F26D7D"/>
<path d="M41.3888 62.5506C42.9086 62.5506 44.0209 62.3615 44.7208 61.9834C43.3985 60.5359 41.3963 59.5353 38.7218 58.9884C38.9217 59.7743 39.8091 60.9599 41.3888 62.5506Z" fill="#C25E69"/>
<path d="M37.8481 57.711L38.0694 58.2376C38.5193 59.326 39.6316 60.7668 41.4013 62.5479L41.6988 62.8936C43.561 62.8747 44.9083 62.6235 45.7407 62.1009L46.0906 61.8984L45.8056 61.6013C44.0872 59.7378 41.5938 58.4739 38.3156 57.8001L37.8481 57.711ZM41.6925 62.267H41.64C40.0565 60.6736 39.043 59.4232 38.6055 58.5104C41.3676 59.1315 43.5273 60.2091 45.0883 61.7377C44.3084 62.0712 43.1786 62.2481 41.6925 62.267Z" fill="black"/>
<path d="M34.8136 65.2864C35.4723 64.7395 36.0759 63.8199 36.6258 62.5182L33.1839 59.4354C32.9514 61.4609 33.4926 63.4121 34.8149 65.2877" fill="#F26D7D"/>
<path d="M36.6896 62.3548L33.8813 60.0012C33.7363 61.7296 34.2062 63.3419 35.3023 64.8354C35.8022 64.3263 36.2746 63.5012 36.6896 62.3561" fill="#C25E69"/>
<path d="M32.9739 58.9992L32.9039 59.3773C32.654 61.4973 33.2126 63.5309 34.5812 65.4808L34.7624 65.7374L34.9948 65.5348C35.6885 64.9623 36.3346 63.9684 36.9345 62.5506L32.9739 58.9992ZM36.3234 62.4858C35.8735 63.5255 35.386 64.3047 34.8674 64.8273C33.8175 63.242 33.3426 61.5999 33.4351 59.9066L36.3234 62.4858Z" fill="black"/>
<path d="M57.1501 58.7359C56.6627 58.9114 56.2353 59.2585 55.8753 59.7811C55.5154 60.3036 55.3279 60.8384 55.3104 61.392C55.2929 61.9456 55.4504 62.3548 55.7828 62.6249C56.1153 62.8949 56.5227 62.9462 57.0077 62.7693C57.4926 62.5925 57.9225 62.2468 58.2825 61.7242C58.6424 61.2016 58.8299 60.6669 58.8474 60.1132C58.8649 59.5596 58.7136 59.1437 58.3812 58.8736C58.0487 58.6036 57.6363 58.559 57.1526 58.7359" fill="#C6996D"/>
<path d="M58.1525 59.4219C57.9075 59.2261 57.6051 59.1896 57.2501 59.3206C56.87 59.4659 56.5405 59.7341 56.3065 60.0889C56.0565 60.4724 55.9041 60.8694 55.8941 61.2772C55.8841 61.685 55.9941 61.9888 56.244 62.1819C56.4815 62.3845 56.7852 62.4209 57.1414 62.29C57.5215 62.1447 57.851 61.8764 58.085 61.5216C58.3349 61.1381 58.4849 60.7411 58.4974 60.3333C58.5099 59.9255 58.3974 59.6217 58.1537 59.4205" fill="#8F6C5E"/>
<path d="M25.8625 65.1162C26.5212 65.0595 27.2023 65.2297 27.9184 65.6253C28.6346 66.021 29.1645 66.5246 29.5082 67.135C29.8519 67.7453 29.9081 68.2868 29.6832 68.7581C29.4582 69.2294 29.0208 69.494 28.3609 69.5507C27.701 69.6074 27.0161 69.4292 26.2987 69.0349C25.5813 68.6406 25.0576 68.141 24.7139 67.5306C24.3702 66.9203 24.3065 66.3788 24.5265 65.9075C24.7464 65.4363 25.1964 65.1716 25.86 65.1149" fill="#C6996D"/>
<path d="M26.07 65.6199C25.5401 65.6645 25.1789 65.8711 24.9989 66.2492C24.8189 66.6273 24.8702 67.0675 25.1489 67.559C25.4276 68.0505 25.8488 68.4529 26.4187 68.7675C26.9886 69.0822 27.5435 69.2213 28.0722 69.1767C28.6008 69.1321 28.957 68.9201 29.1383 68.542C29.3195 68.1639 29.267 67.7318 28.9933 67.2457C28.7183 66.7488 28.2934 66.3464 27.7185 66.0304C27.1436 65.7144 26.5936 65.5767 26.0687 65.6213" fill="#8F6C5E"/>
<path d="M54.3031 72.3918L53.447 70.9011L51.9622 71.19L52.8183 72.6808L54.3031 72.3918Z" fill="#FDF155"/>
<path d="M57.4776 73.6747L58.2275 72.959L57.7025 72.0083L56.9527 72.724L57.4776 73.6747Z" fill="#FDF155"/>
<path d="M61.3957 73.0697L62.0131 72.7551L61.5357 72.3581L60.9183 72.6727L61.3957 73.0697Z" fill="#FDF155"/>
<path d="M53.6657 62.1158C53.2982 62.1657 52.9433 62.3548 52.6121 62.6762C52.2809 62.9976 52.0584 63.3554 51.9597 63.7524C51.861 64.1494 51.9134 64.464 52.1097 64.703C52.3059 64.942 52.5933 65.0366 52.9845 64.9798C53.352 64.9231 53.7069 64.7341 54.0444 64.4127C54.3818 64.0913 54.5918 63.7335 54.6905 63.3432C54.7892 62.953 54.7368 62.6316 54.5405 62.3872C54.3443 62.1428 54.0569 62.0591 53.6657 62.1158Z" fill="#C6996D"/>
<path d="M54.3781 62.6046C54.2093 62.4021 53.9756 62.3278 53.6657 62.3723C53.3346 62.4341 53.0273 62.5983 52.7808 62.845C52.5275 63.0794 52.3414 63.3872 52.2446 63.7321C52.1634 64.0657 52.2034 64.3303 52.3721 64.5315C52.5409 64.7327 52.7746 64.8016 53.0845 64.7516C53.3945 64.7017 53.6844 64.5558 53.9644 64.2858C54.2443 64.0157 54.4243 63.7254 54.5018 63.3918C54.583 63.0705 54.5418 62.8072 54.3781 62.6046Z" fill="#8F6C5E"/>
</g>
</svg>
