<svg width="82" height="82" viewBox="0 0 82 82" fill="none" xmlns="http://www.w3.org/2000/svg">
<g id="sass">
<path d="M69.8697 45.4505C67.0721 45.4668 64.6508 46.1384 62.6195 47.1391C61.8695 45.6531 61.1195 44.3561 60.9945 43.3867C60.8532 42.261 60.6819 41.5731 60.8532 40.2285C61.0245 38.8839 61.807 36.9765 61.807 36.8201C61.792 36.6788 61.6345 35.9909 60.0257 35.9759C58.4169 35.9609 57.0256 36.2886 56.8693 36.7113C56.5902 37.4924 56.3655 38.2919 56.1968 39.1041C55.9155 40.5737 52.978 45.7807 51.3054 48.5174C50.7579 47.4543 50.2891 46.5162 50.1954 45.7657C50.0541 44.64 49.8829 43.9521 50.0541 42.6075C50.2254 41.2629 51.0079 39.3555 51.0079 39.1991C50.9929 39.0578 50.8354 38.3699 49.2266 38.3548C47.6178 38.3398 46.2265 38.6675 46.0703 39.0903C45.914 39.5131 45.7415 40.5137 45.3977 41.483C45.069 42.4524 41.1626 51.1466 40.1476 53.413C39.6313 54.5699 39.1788 55.493 38.85 56.1184C38.5213 56.7438 38.835 56.1659 38.8038 56.2285L38.3663 57.0577V57.0727C38.1475 57.4642 37.9125 57.8395 37.8037 57.8395C37.7262 57.8395 37.5687 56.7913 37.835 55.3529C38.4138 52.3348 39.8201 47.6281 39.8038 47.4568C39.8038 47.3792 40.0701 46.5499 38.8975 46.1272C37.7562 45.7044 37.35 46.4086 37.2562 46.4086C37.1625 46.4086 37.0837 46.6588 37.0837 46.6588C37.0837 46.6588 38.35 41.358 34.6612 41.358C32.3486 41.358 29.161 43.8758 27.5822 46.1735L19.6119 50.5362L19.4394 50.3486C14.9731 45.5756 6.70656 42.1985 7.05032 35.7882C7.17532 33.458 7.98785 27.313 22.9258 19.8708C35.1612 13.7733 44.9602 15.4456 46.664 19.1667C49.0866 24.4825 41.4289 34.3636 28.7085 35.7895C23.8646 36.3373 21.317 34.4599 20.6757 33.757C20.0032 33.0215 19.9095 32.9903 19.6594 33.1316C19.2532 33.3505 19.5032 34.0071 19.6594 34.3986C20.0345 35.3842 21.597 37.1353 24.2533 38.0109C26.5822 38.7776 32.2698 39.1991 39.1463 36.5412C46.8503 33.5544 52.8667 25.2679 51.1004 18.3424C49.3028 11.2905 37.615 8.97656 26.5659 12.9015C19.9882 15.2442 12.8755 18.9015 7.75034 23.702C1.6439 29.393 0.675123 34.3661 1.08013 36.4299C2.50268 43.7945 12.643 48.595 16.7056 52.1447L16.1431 52.4574C14.1118 53.458 6.37655 57.508 4.43899 61.7919C2.25142 66.6387 4.78275 70.1259 6.4703 70.5949C11.6892 72.0496 17.0331 69.4379 19.9245 65.1378C22.7995 60.8376 22.4558 55.2566 21.1282 52.7075L21.0807 52.6137L22.6745 51.6756C23.7058 51.0653 24.7221 50.5024 25.6121 50.0184C25.1121 51.3792 24.7521 52.989 24.5646 55.3342C24.3458 58.0859 25.4709 61.6506 26.9559 63.059C27.6122 63.6694 28.3935 63.6844 28.8785 63.6844C30.5973 63.6844 31.3786 62.261 32.2386 60.5574C33.3011 58.4774 34.2386 56.0696 34.2386 56.0696C34.2386 56.0696 33.0661 62.5899 36.27 62.5899C37.4425 62.5899 38.6138 61.0727 39.145 60.291V60.306C39.145 60.306 39.1763 60.2585 39.2388 60.1497C39.3638 59.962 39.4263 59.852 39.4263 59.852V59.8207C39.8951 59.0077 40.9426 57.1465 42.5051 54.0671C44.5215 50.0959 46.459 45.1241 46.459 45.1241C46.459 45.1241 46.6465 46.3436 47.2253 48.3448C47.569 49.5331 48.3191 50.8314 48.8978 52.0971L48.1478 53.129L48.1628 53.1453C47.7628 53.6756 47.3511 54.1969 46.9278 54.7088C45.334 56.6162 43.4277 58.7901 43.1777 59.4155C42.8802 60.1509 42.9427 60.6975 43.5214 61.1353C43.9439 61.448 44.694 61.5105 45.4902 61.448C46.9278 61.3542 47.9278 60.9939 48.4278 60.7751C49.3299 60.4533 50.1821 60.0057 50.9591 59.4455C52.5217 58.2885 53.4755 56.6462 53.3817 54.4574C53.3342 53.2529 52.9442 52.0646 52.4592 50.9389L52.8817 50.3135C55.3505 46.7013 57.2568 42.7301 57.2568 42.7301C57.2568 42.7301 57.4443 43.9496 58.0231 45.9508C58.3206 46.9677 58.9144 48.0771 59.4457 49.1716C57.1331 51.064 55.6793 53.2529 55.1793 54.6913C54.2567 57.3492 54.9755 58.5537 56.3356 58.8351C56.9456 58.9602 57.8206 58.6787 58.4769 58.3973C59.2894 58.1309 60.2744 57.6781 61.1807 57.0052C62.7433 55.8482 64.2433 54.2372 64.1658 52.0646C64.1183 51.064 63.8533 50.0784 63.4933 49.1403C65.4621 48.3273 68.0097 47.8583 71.2435 48.2485C78.1975 49.0615 79.5725 53.408 79.3063 55.2216C79.04 57.0352 77.5875 58.0358 77.1024 58.3485C76.6174 58.6462 76.4612 58.755 76.5087 58.9739C76.5712 59.3029 76.7899 59.2866 77.2124 59.2241C77.7912 59.1303 80.8688 57.7382 80.9938 54.3923C81.1813 50.0921 77.1024 45.4017 69.8685 45.4493L69.8697 45.4505ZM16.2381 63.543C13.9405 66.0608 10.7067 67.0139 9.33163 66.2009C7.84659 65.3404 8.42536 61.6356 11.2542 58.9614C12.973 57.3354 15.2081 55.8345 16.6769 54.9114L18.0994 54.0509C18.1932 53.9883 18.2557 53.9571 18.2557 53.9571C18.3657 53.8945 18.4907 53.8157 18.6157 53.7382C19.6632 57.553 18.6632 60.8989 16.2406 63.5418L16.2381 63.543ZM33.0386 52.1134C32.2411 54.0684 30.5535 59.0865 29.5385 58.8051C28.6635 58.5699 28.1322 54.7713 29.366 51.0177C29.991 49.1253 31.3198 46.8739 32.1011 45.9984C33.3674 44.5912 34.7424 44.1222 35.0862 44.7C35.4924 45.4505 33.5386 50.8927 33.0386 52.1134ZM46.899 58.7425C46.5553 58.9151 46.2428 59.0402 46.1015 58.9464C45.9915 58.8839 46.2428 58.6487 46.2428 58.6487C46.2428 58.6487 47.9778 56.7876 48.6653 55.9283L50.0254 54.1922V54.3798C50.0254 56.6312 47.8691 58.1322 46.9003 58.7425H46.899ZM57.5869 56.3035C57.3368 56.1159 57.3681 55.5368 58.2119 53.7232C58.5406 53.004 59.2907 51.7995 60.5869 50.6588C60.7432 51.1278 60.8369 51.5818 60.8219 52.0033C60.8057 54.8176 58.8056 55.8657 57.5869 56.3035Z" fill="#CF649A"/>
</g>
</svg>
