<svg width="82" height="82" viewBox="0 0 82 82" fill="none" xmlns="http://www.w3.org/2000/svg">
<g id="socketio">
<path d="M77.9861 40.1187C77.7849 26.7437 70.8867 13.7212 60.2145 6.86373C51.8063 1.20248 41.185 -0.321266 31.6182 2.29123C17.2194 6.20998 5.74014 20.3075 4.28095 36.375C2.46795 51.55 9.56733 67.3325 21.6999 75.115C33.5815 83.17 49.7424 82.8437 61.3592 74.365C71.8314 67.0175 78.326 53.615 77.9745 40.13L77.9861 40.1187ZM43.0465 75.0625C26.2312 76.8587 9.9697 61.4562 9.5153 43.2225C8.24342 28.4187 17.268 13.7775 30.1567 8.87873C48.2312 1.04123 70.4335 15.5187 72.2962 36.475C75.2169 55.305 60.7175 74.475 43.0465 75.0625ZM31.9812 38.975L56.2972 17.475L43.1576 39.0287C39.4321 39.0287 35.7067 39.03 31.9812 38.975ZM38.8181 42.95L49.9945 43.005L25.6785 64.5587L38.8181 42.95Z" fill="#010101"/>
</g>
</svg>
