<svg width="82" height="82" viewBox="0 0 82 82" fill="none" xmlns="http://www.w3.org/2000/svg">
<g id="vscode">
<path fill-rule="evenodd" clip-rule="evenodd" d="M53.9763 71.7392C54.9522 72.1155 56.065 72.0914 57.05 71.6223L69.807 65.5479C71.1475 64.9096 72 63.5671 72 62.0943V20.9059C72 19.4331 71.1476 18.0906 69.8071 17.4523L57.05 11.3777C55.7573 10.7622 54.2444 10.9129 53.1098 11.7292C52.9478 11.8458 52.7934 11.9759 52.6485 12.1194L28.2268 34.1675L17.5891 26.1768C16.5989 25.433 15.2138 25.494 14.2941 26.3219L10.8822 29.393C9.75725 30.4057 9.75596 32.1571 10.8794 33.1714L20.1047 41.5L10.8794 49.8286C9.75596 50.8429 9.75725 52.5944 10.8822 53.607L14.2941 56.6782C15.2138 57.5061 16.5989 57.567 17.5891 56.8231L28.2268 48.8326L52.6485 70.8806C53.0349 71.2631 53.4885 71.5512 53.9763 71.7392ZM56.5188 27.5805L37.9883 41.5L56.5188 55.4194V27.5805Z" fill="white"/>
<path d="M69.8074 17.4618L57.0404 11.3788C55.5626 10.6747 53.7965 10.9717 52.6368 12.1194L10.8423 49.8286C9.71813 50.8429 9.71942 52.5943 10.8451 53.6069L14.259 56.6781C15.1793 57.506 16.5652 57.567 17.556 56.8231L67.8863 19.0398C69.5748 17.7723 72 18.964 72 21.0613V20.9146C72 19.4424 71.1478 18.1004 69.8074 17.4618Z" fill="#0065A9"/>
<path d="M69.8074 65.5382L57.0404 71.6211C55.5626 72.3254 53.7965 72.0282 52.6368 70.8806L10.8423 33.1713C9.71813 32.1571 9.71942 30.4056 10.8451 29.393L14.259 26.3218C15.1793 25.4939 16.5652 25.433 17.556 26.1768L67.8863 63.9601C69.5748 65.2277 72 64.0359 72 61.9387V62.0853C72 63.5575 71.1478 64.8995 69.8074 65.5382Z" fill="#007ACC"/>
<path d="M57.0409 71.6222C55.5627 72.326 53.7966 72.0283 52.6368 70.8806C54.0659 72.2948 56.5094 71.2931 56.5094 69.2932V13.7067C56.5094 11.7067 54.0659 10.7052 52.6368 12.1194C53.7966 10.9716 55.5627 10.6741 57.0409 11.3776L69.8057 17.4522C71.147 18.0905 72 19.4331 72 20.9059V62.0943C72 63.5671 71.147 64.9095 69.8057 65.5478L57.0409 71.6222Z" fill="#1F9CF0"/>
</g>
</svg>
