<svg width="82" height="82" viewBox="0 0 82 82" fill="none" xmlns="http://www.w3.org/2000/svg">
<g id="webpack">
<path d="M74.7842 62.6575L42.4198 81V66.7175L62.582 55.6025L74.7842 62.6575ZM77 60.65V22.3L65.1622 29.155V53.81L77 60.65ZM7.21585 62.6575L39.5752 81V66.7175L19.4005 55.6L7.21585 62.6575ZM5 60.65V22.3L16.8378 29.155V53.81L5 60.65ZM6.3874 19.81L39.5752 1V14.805L18.1404 26.625L6.3874 19.81ZM75.6076 19.81L42.4198 1V14.805L63.8546 26.6125L75.6076 19.81Z" fill="#8ED6FB"/>
<path d="M39.5751 64.0925L19.6774 53.125V31.415L39.5751 42.925V64.0925ZM42.4197 64.0925L62.3199 53.135V31.41L42.4197 42.925V64.0925ZM21.0248 28.905L40.9974 17.9075L60.97 28.9075L40.9974 40.4575L21.0248 28.905Z" fill="#1C78C0"/>
</g>
</svg>
